<svg width="189" height="127" viewBox="0 0 189 127" fill="none" xmlns="http://www.w3.org/2000/svg">
<g filter="url(#filter0_d_4003_12412)">
<path d="M17.6131 90.2748C-16.8808 72.5918 22.5112 37.4323 44.0128 28.1363C51.7749 24.955 43.5147 27.0621 41.1072 18.0553C39.2393 12.0646 39.3223 -0.0822116 47.9561 0.00041945C56.673 2.76856 58.1258 15.8656 54.2655 22.9718C54.1824 23.385 54.473 23.5503 54.7221 23.2611C58.4994 21.7324 62.3597 20.4929 66.137 19.3361C85.1896 14.0477 106.442 12.8495 125.744 18.1792C127.031 18.6337 131.804 19.9558 131.015 20.4929C119.31 18.014 106.816 17.9314 94.8612 19.46C77.552 22.3108 60.9484 28.0123 45.4241 36.8539C28.3224 46.687 0.345421 69.5757 17.6131 90.2748Z" fill="white"/>
<path d="M75.1859 30.1605C94.9857 21.0711 119.476 20.4513 140.728 25.905C142.596 26.2768 144.298 26.9379 146.166 27.475C146.872 27.5163 150.192 29.5408 149.611 27.7642C146.166 21.7734 153.555 6.81723 160.694 13.6343C164.347 19.2119 160.902 27.9708 155.007 30.5323C154.592 31.4 157.996 32.1023 158.702 32.7634C175.139 40.9025 189.584 59.3292 182.237 78.0039C181.947 78.4996 181.947 79.4086 181.407 79.6978C180.909 78.8302 181.988 77.2602 181.615 76.1033C182.362 56.1479 162.313 42.7204 145.668 35.862C123.668 26.566 98.5969 26.0703 75.1859 30.1605Z" fill="white"/>
<path d="M119.227 118.99C112.959 119.155 122.506 117.337 123.793 116.221C134.502 111.966 154.842 101.885 160.03 92.6303C155.547 90.7298 151.396 80.4422 157.706 78.8722C162.023 80.0291 163.724 84.9043 164.347 88.664C169.453 83.4169 173.479 75.8562 174.309 68.626C185.392 78.0046 172.441 94.3655 164.057 101.348C151.396 111.718 135.332 117.626 119.227 118.907C119.227 118.948 119.227 118.99 119.227 118.99Z" fill="white"/>
<path d="M93.9066 118.948C82.5746 118.99 70.8276 116.8 60.8655 111.677C74.1483 113.371 89.05 113.412 102.291 109.942C116.404 106.802 103.661 108.826 107.563 95.316C110.303 89.4078 114.329 95.6878 114.661 99.4062C115.284 101.637 114.08 103.992 114.08 105.975C119.808 104.116 125.951 100.315 129.521 95.1507C129.978 94.7789 130.227 92.7544 130.932 93.9939C137.408 112.421 107.355 119.609 93.9066 118.948Z" fill="white"/>
<path d="M57.9182 108.206C41.9788 107.503 27.5752 97.1746 17.4886 85.3583C17.3225 85.1517 17.4886 84.8212 17.7791 85.0278C21.1414 87.672 24.8356 89.9443 28.6129 91.9688C35.96 95.8111 43.6807 98.6619 51.6504 100.191C52.9372 100.108 51.5259 97.4225 52.024 96.4722C51.6919 93.7867 54.9711 86.9283 57.8352 90.6467C59.1635 93.6214 58.2503 97.5051 56.3824 100.025C57.0465 102.876 68.7105 100.067 70.4954 97.9596C71.9067 97.629 70.9935 100.273 70.8275 101.017C69.7898 106.677 63.0238 108.495 57.9182 108.206Z" fill="white"/>
<path d="M42.6429 55.2384V46.4795H43.6392V55.2384H42.6429ZM43.2656 51.1482V50.1979H48.6617V51.1482H43.2656ZM48.2882 55.2384V46.4795H49.2844V55.2384H48.2882Z" fill="white"/>
<path d="M51.6919 55.2384L55.2617 46.4795H56.0088L59.5786 55.2384H58.5409L57.4201 52.3876L57.3371 52.2223L55.4692 47.5537H55.7598L53.8919 52.2223L53.8089 52.3876L52.6881 55.2384H51.6919ZM53.3938 52.8421V51.8918H58.0428V52.8421H53.3938Z" fill="white"/>
<path d="M68.586 57.3455V55.2384H61.9861V46.4795H62.9823V54.2881H67.4653V46.4795H68.4615V54.2881H69.5822V57.3455H68.586Z" fill="white"/>
<path d="M72.1144 55.2384V46.4795H73.1106V53.8337L72.82 53.751L78.8803 46.5208H79.503V55.2797H78.5068V47.9255L78.7973 48.0082L72.737 55.2384H72.1144Z" fill="white"/>
<path d="M86.8914 55.3629C86.0612 55.3629 85.3141 55.1563 84.6084 54.7431C83.9028 54.33 83.3632 53.7929 82.9481 53.0905C82.533 52.3881 82.3254 51.6445 82.3254 50.8181C82.3254 49.9918 82.533 49.2482 82.9481 48.5458C83.3632 47.8434 83.9028 47.3063 84.6084 46.8932C85.3141 46.48 86.0612 46.2734 86.8914 46.2734C87.7216 46.2734 88.4688 46.48 89.1744 46.8932C89.8801 47.3063 90.4197 47.8434 90.8348 48.5458C91.2499 49.2482 91.4574 49.9918 91.4574 50.8181C91.4574 51.6445 91.2499 52.3881 90.8348 53.0905C90.4197 53.7929 89.8801 54.33 89.1744 54.7431C88.5103 55.1563 87.7216 55.3629 86.8914 55.3629ZM86.8914 54.4126C87.5141 54.4126 88.0952 54.2473 88.6348 53.9168C89.1744 53.5863 89.5895 53.1731 89.9216 52.636C90.2536 52.0989 90.3782 51.4792 90.3782 50.8181C90.3782 50.1571 90.2121 49.5787 89.9216 49.0003C89.5895 48.4632 89.1744 48.0087 88.6348 47.7195C88.0952 47.4303 87.5141 47.2237 86.8914 47.2237C86.2688 47.2237 85.6877 47.389 85.1481 47.7195C84.6084 48.05 84.1933 48.4632 83.8613 49.0003C83.5292 49.5374 83.4047 50.1571 83.4047 50.8181C83.4047 51.4792 83.5707 52.0576 83.8613 52.636C84.1933 53.1731 84.6084 53.6276 85.1481 53.9168C85.6877 54.206 86.2688 54.4126 86.8914 54.4126Z" fill="white"/>
<path d="M94.28 55.2384V46.4795H95.2762V55.2384H94.28ZM94.9027 51.1482V50.1979H100.299V51.1482H94.9027ZM99.9252 55.2384V46.4795H100.921V55.2384H99.9252Z" fill="white"/>
<path d="M103.329 55.2384L106.899 46.4795H107.646L111.216 55.2384H110.136L109.016 52.3876L108.933 52.2223L107.065 47.5537H107.355L105.487 52.2223L105.404 52.3876L104.284 55.2384H103.329ZM105.031 52.8421V51.8918H109.68V52.8421H105.031Z" fill="white"/>
<path d="M112.502 55.28V54.2884H112.71C113.167 54.2884 113.54 54.1232 113.748 53.834C113.955 53.5448 114.08 53.0076 114.163 52.264L114.578 46.4385H119.85V55.1974H118.853V47.3887H115.076L115.533 46.9756L115.159 52.264C115.117 53.0076 114.993 53.6274 114.785 54.0405C114.578 54.495 114.329 54.7842 113.997 54.9908C113.665 55.1561 113.291 55.28 112.835 55.28H112.502Z" fill="white"/>
<path d="M123.17 55.2384V46.4795H124.166V54.2881H125.661C126.076 54.2881 126.408 54.2055 126.698 54.0815C126.989 53.9163 127.238 53.751 127.404 53.4618C127.57 53.2139 127.653 52.8834 127.653 52.5529C127.653 52.2224 127.57 51.8918 127.404 51.6439C127.238 51.396 126.989 51.1895 126.698 51.0242C126.408 50.8589 126.034 50.8176 125.661 50.8176H123.668V49.8674H125.661C126.242 49.8674 126.781 49.9913 127.238 50.1979C127.695 50.4458 128.068 50.735 128.317 51.1482C128.566 51.5613 128.691 52.0158 128.691 52.5529C128.691 53.09 128.566 53.5444 128.317 53.9576C128.068 54.3708 127.695 54.7013 127.238 54.9079C126.781 55.1144 126.242 55.2384 125.661 55.2384H123.17Z" fill="white"/>
<path d="M131.389 55.2384V46.4795H132.385V55.2384H131.389ZM132.012 51.1482V50.1979H137.408V51.1482H132.012ZM137.034 55.2384V46.4795H138.03V55.2384H137.034Z" fill="white"/>
<path d="M140.438 55.2384L144.008 46.4795H144.755L148.325 55.2384H147.245L146.125 52.3876L146.042 52.2223L144.174 47.5537H144.464L142.596 52.2223L142.513 52.3876L141.393 55.2384H140.438ZM142.14 52.8421V51.8918H146.789V52.8421H142.14Z" fill="white"/>
<path d="M149.86 55.2384L152.808 51.2308H153.97L151.106 55.2384H149.86ZM154.966 55.2384V47.4298H153.389C153.015 47.4298 152.725 47.5124 152.434 47.6363C152.185 47.7603 151.977 47.9669 151.811 48.1734C151.645 48.4213 151.604 48.6692 151.604 48.9997C151.604 49.2889 151.687 49.5782 151.811 49.8261C151.977 50.0739 152.185 50.2392 152.434 50.3631C152.683 50.4871 153.015 50.5697 153.389 50.5697H155.506V51.52H153.389C152.849 51.52 152.351 51.396 151.936 51.1895C151.521 50.9829 151.189 50.6524 150.94 50.2805C150.691 49.9087 150.566 49.4955 150.566 48.9997C150.566 48.504 150.691 48.0908 150.94 47.719C151.189 47.3471 151.521 47.0579 151.936 46.81C152.351 46.6034 152.849 46.4795 153.389 46.4795H156.004V55.2384H154.966Z" fill="white"/>
<path d="M46.3788 70.0714V61.3125H48.9523C49.5335 61.3125 49.9901 61.4365 50.4467 61.643C50.8617 61.8496 51.1938 62.1388 51.4429 62.552C51.6919 62.9238 51.8165 63.3783 51.8165 63.8327C51.8165 64.3285 51.6919 64.7417 51.4429 65.1135C51.1938 65.4854 50.8617 65.7746 50.4467 66.0225C50.0316 66.2291 49.5335 66.353 48.9523 66.353H47.0429V65.4027H48.9523C49.3259 65.4027 49.658 65.3201 49.907 65.1962C50.1976 65.0722 50.4051 64.8656 50.5297 64.6591C50.6957 64.4112 50.7372 64.1633 50.7372 63.8327C50.7372 63.5022 50.6542 63.2543 50.5297 63.0064C50.3636 62.7585 50.1561 62.5933 49.907 62.4693C49.6165 62.3454 49.3259 62.2628 48.9523 62.2628H47.375V70.0714H46.3788Z" fill="white"/>
<path d="M58.4164 70.1949C57.5863 70.1949 56.8391 69.9883 56.1335 69.5751C55.4278 69.162 54.8882 68.6249 54.4731 67.9225C54.058 67.2202 53.8505 66.4765 53.8505 65.6502C53.8505 64.8239 54.058 64.0802 54.4731 63.3778C54.8882 62.6755 55.4278 62.1384 56.1335 61.7252C56.8391 61.312 57.5863 61.1055 58.4164 61.1055C59.2466 61.1055 59.9938 61.312 60.6994 61.7252C61.4051 62.1384 61.9447 62.6755 62.3598 63.3778C62.7749 64.0802 62.9824 64.8239 62.9824 65.6502C62.9824 66.4765 62.7749 67.2202 62.3598 67.9225C61.9447 68.6249 61.4051 69.162 60.6994 69.5751C60.0353 69.9883 59.2466 70.1949 58.4164 70.1949ZM58.4164 69.2446C59.0391 69.2446 59.6202 69.0794 60.1598 68.7488C60.6994 68.4183 61.1145 68.0052 61.4466 67.4681C61.7787 66.931 61.9032 66.3112 61.9032 65.6502C61.9032 64.9891 61.7372 64.4107 61.4466 63.8323C61.1145 63.2952 60.6994 62.8407 60.1598 62.5515C59.6202 62.2623 59.0391 62.0557 58.4164 62.0557C57.7938 62.0557 57.2127 62.221 56.6731 62.5515C56.1335 62.882 55.7184 63.2952 55.3863 63.8323C55.0542 64.3694 54.9297 64.9891 54.9297 65.6502C54.9297 66.3112 55.0957 66.8897 55.3863 67.4681C55.7184 68.0052 56.1335 68.4596 56.6731 68.7488C57.2127 69.0794 57.7938 69.2446 58.4164 69.2446Z" fill="white"/>
<path d="M64.4352 69.1211C64.8918 69.0798 65.2238 68.8319 65.4729 68.4601C65.722 68.0883 65.888 67.5925 65.971 66.9314L66.4691 61.3125H71.6577V69.1211H72.7785V72.1785H71.7823V70.0714H65.4314V72.1785H64.4352V69.1211ZM65.805 69.369L65.722 69.1624H70.62V62.2628H66.9257L67.3823 61.8496L66.9257 66.9727C66.8842 67.4685 66.8427 67.8817 66.7597 68.1709C66.6767 68.4601 66.5521 68.708 66.4276 68.9146C66.2616 69.0798 66.054 69.2451 65.805 69.369Z" fill="white"/>
<path d="M75.3105 70.0714V61.3125H76.3068V68.6667L76.0162 68.584L82.0765 61.3538H82.6991V70.1127H81.7029V62.7585L81.9935 62.8412L75.9332 70.0714H75.3105Z" fill="white"/>
<path d="M87.4312 70.0714V62.2628H85.1482V61.3125H90.6689V62.2628H88.4274V70.0714H87.4312Z" fill="white"/>
<path d="M93.1593 70.0714V61.3125H97.8083V62.2628H94.1555V69.1624H97.9328V70.1127H93.1593V70.0714ZM93.948 65.9812V65.0309H97.6838V65.9812H93.948Z" fill="white"/>
<path d="M99.6346 70.113V69.1214H99.8422C100.299 69.1214 100.672 68.9562 100.88 68.667C101.087 68.3777 101.212 67.8406 101.295 67.097L101.71 61.2715H106.982V70.0304H105.985V62.2217H102.208L102.665 61.8086L102.291 67.097C102.25 67.8406 102.125 68.4604 101.918 68.8735C101.71 69.328 101.461 69.6172 101.129 69.8238C100.797 69.989 100.423 70.113 99.9667 70.113H99.6346Z" fill="white"/>
<path d="M110.302 70.0714V61.3125H111.299V69.1211H112.793C113.208 69.1211 113.54 69.0385 113.831 68.9146C114.121 68.7493 114.37 68.584 114.536 68.2948C114.702 68.0469 114.785 67.7164 114.785 67.3859C114.785 67.0554 114.702 66.7248 114.536 66.4769C114.37 66.229 114.121 66.0225 113.831 65.8572C113.54 65.6919 113.167 65.6506 112.793 65.6506H110.801V64.7004H112.793C113.374 64.7004 113.914 64.8243 114.37 65.0309C114.827 65.2375 115.201 65.568 115.45 65.9812C115.699 66.3943 115.823 66.8488 115.823 67.3859C115.823 67.923 115.699 68.3775 115.45 68.7906C115.201 69.2038 114.827 69.5343 114.37 69.7409C113.914 69.9888 113.374 70.0714 112.793 70.0714H110.302Z" fill="white"/>
<path d="M122.465 70.1949C121.634 70.1949 120.887 69.9883 120.223 69.5751C119.518 69.162 118.978 68.6249 118.604 67.9225C118.189 67.2202 118.023 66.4765 118.023 65.6502C118.023 64.8239 118.231 64.0802 118.604 63.3778C119.019 62.6755 119.559 62.1384 120.223 61.7252C120.929 61.312 121.676 61.1055 122.465 61.1055C123.087 61.1055 123.668 61.2294 124.208 61.436C124.748 61.6839 125.204 62.0144 125.578 62.4276C125.951 62.8407 126.283 63.3365 126.533 63.9149H125.453C125.163 63.3365 124.748 62.882 124.25 62.5515C123.751 62.221 123.129 62.0557 122.506 62.0557C121.884 62.0557 121.302 62.221 120.804 62.5515C120.265 62.882 119.85 63.2952 119.559 63.8323C119.268 64.3694 119.102 64.9891 119.102 65.6502C119.102 66.3112 119.268 66.8897 119.559 67.4681C119.85 68.0465 120.265 68.4596 120.804 68.7488C121.344 69.0794 121.925 69.2446 122.506 69.2446C123.17 69.2446 123.793 69.0794 124.291 68.7488C124.831 68.4183 125.204 67.9638 125.495 67.3854H126.574C126.325 67.9638 126.034 68.4596 125.619 68.8728C125.246 69.2859 124.748 69.6165 124.25 69.8644C123.751 70.1123 123.087 70.1949 122.465 70.1949Z" fill="white"/>
<path d="M129.189 70.0714V61.3125H130.185V70.0714H129.189ZM134.087 70.0714L130.019 65.6093L133.921 61.3125H135.166L130.932 65.9812V65.1548L135.457 70.0714H134.087Z" fill="white"/>
<path d="M136.661 70.0714L140.231 61.3125H140.978L144.547 70.0714H143.468L142.347 67.2206L142.264 67.0554L140.397 62.3867H140.687L138.819 67.0554L138.736 67.2206L137.615 70.0714H136.661ZM138.363 67.6751V66.7248H143.012V67.6751H138.363Z" fill="white"/>
<path d="M146.125 70.0714L149.072 66.0638H150.234L147.37 70.0714H146.125ZM151.189 70.0714V62.2628H149.612C149.238 62.2628 148.947 62.3454 148.657 62.4693C148.408 62.5933 148.2 62.7999 148.034 63.0064C147.868 63.2543 147.827 63.5022 147.827 63.8327C147.827 64.122 147.91 64.4112 148.034 64.6591C148.2 64.907 148.408 65.0722 148.657 65.1962C148.906 65.3201 149.238 65.4027 149.612 65.4027H151.728V66.353H149.612C149.072 66.353 148.574 66.2291 148.159 66.0225C147.744 65.8159 147.412 65.4854 147.162 65.1135C146.913 64.7417 146.789 64.3285 146.789 63.8327C146.789 63.337 146.913 62.9238 147.162 62.552C147.412 62.1801 147.744 61.8909 148.159 61.643C148.574 61.4365 149.072 61.3125 149.612 61.3125H152.227V70.0714H151.189Z" fill="white"/>
<path d="M49.3674 84.8209L52.9372 76.062H53.6844L57.2541 84.8209H56.1749L55.0542 81.9701L54.9711 81.8049L53.1032 77.1362H53.3938L51.5259 81.8049L51.4429 81.9701L50.3221 84.8209H49.3674ZM51.0693 82.4246V81.4743H55.7183V82.4246H51.0693Z" fill="white"/>
<path d="M63.1484 84.9444C62.3182 84.9444 61.571 84.7378 60.9069 84.3247C60.2012 83.9115 59.6616 83.3744 59.288 82.672C58.9145 81.9697 58.7069 81.226 58.7069 80.3997C58.7069 79.5734 58.9145 78.8297 59.288 78.1273C59.6616 77.425 60.2427 76.8879 60.9069 76.4747C61.6125 76.0616 62.3597 75.855 63.1484 75.855C63.771 75.855 64.3521 75.9789 64.8917 76.1855C65.4314 76.4334 65.888 76.7639 66.2615 77.1771C66.6351 77.5902 66.9672 78.086 67.2162 78.6644H66.137C65.8464 78.086 65.4313 77.6315 64.9332 77.301C64.4351 76.9705 63.8125 76.8052 63.1899 76.8052C62.5672 76.8052 61.9861 76.9705 61.488 77.301C60.9484 77.6315 60.5333 78.0447 60.2427 78.5818C59.9522 79.1189 59.7861 79.7386 59.7861 80.3997C59.7861 81.0607 59.9522 81.6391 60.2427 82.2176C60.5333 82.7547 60.9484 83.2091 61.488 83.4984C62.0276 83.8289 62.6087 83.9941 63.1899 83.9941C63.854 83.9941 64.4766 83.8289 64.9748 83.4984C65.5144 83.1678 65.8879 82.7134 66.1785 82.1349H67.2577C67.0087 82.7134 66.7181 83.2091 66.303 83.6223C65.8879 84.0354 65.4313 84.366 64.9332 84.6139C64.3521 84.8205 63.771 84.9444 63.1484 84.9444Z" fill="white"/>
<path d="M73.8161 84.9444C72.9859 84.9444 72.2387 84.7378 71.5746 84.3247C70.8689 83.9115 70.3293 83.3744 69.9558 82.672C69.5822 81.9697 69.3746 81.226 69.3746 80.3997C69.3746 79.5734 69.5822 78.8297 69.9558 78.1273C70.3293 77.425 70.9105 76.8879 71.5746 76.4747C72.2803 76.0616 73.0274 75.855 73.8161 75.855C74.4387 75.855 75.0198 75.9789 75.5595 76.1855C76.0991 76.4334 76.5557 76.7639 76.9292 77.1771C77.3028 77.5902 77.6349 78.086 77.884 78.6644H76.8047C76.5142 78.086 76.0991 77.6315 75.601 77.301C75.1029 76.9705 74.4802 76.8052 73.8576 76.8052C73.235 76.8052 72.6538 76.9705 72.1557 77.301C71.6161 77.6315 71.201 78.0447 70.9105 78.5818C70.6199 79.1189 70.4539 79.7386 70.4539 80.3997C70.4539 81.0607 70.6199 81.6391 70.9105 82.2176C71.201 82.7547 71.6161 83.2091 72.1557 83.4984C72.6953 83.8289 73.2765 83.9941 73.8576 83.9941C74.5217 83.9941 75.1444 83.8289 75.6425 83.4984C76.1821 83.1678 76.5557 82.7134 76.8462 82.1349H77.9255C77.6764 82.7134 77.3858 83.2091 76.9708 83.6223C76.5557 84.0354 76.0991 84.366 75.601 84.6139C75.0614 84.8205 74.4802 84.9444 73.8161 84.9444Z" fill="white"/>
<path d="M84.6085 84.9444C83.7783 84.9444 83.0311 84.7378 82.3255 84.3247C81.6198 83.9115 81.0802 83.3744 80.6651 82.672C80.25 81.9697 80.0425 81.226 80.0425 80.3997C80.0425 79.5734 80.25 78.8297 80.6651 78.1273C81.0802 77.425 81.6198 76.8879 82.3255 76.4747C83.0311 76.0616 83.7783 75.855 84.6085 75.855C85.4386 75.855 86.1858 76.0616 86.8914 76.4747C87.5971 76.8879 88.1367 77.425 88.5518 78.1273C88.9669 78.8297 89.1744 79.5734 89.1744 80.3997C89.1744 81.226 88.9669 81.9697 88.5518 82.672C88.1367 83.3744 87.5971 83.9115 86.8914 84.3247C86.1858 84.7378 85.4386 84.9444 84.6085 84.9444ZM84.6085 83.9941C85.2311 83.9941 85.8122 83.8289 86.3518 83.4984C86.8915 83.1678 87.3065 82.7547 87.6386 82.2176C87.9707 81.6805 88.0952 81.0607 88.0952 80.3997C88.0952 79.7386 87.9292 79.1602 87.6386 78.5818C87.3065 78.0447 86.8915 77.5902 86.3518 77.301C85.8122 77.0118 85.2311 76.8052 84.6085 76.8052C83.9858 76.8052 83.4047 76.9705 82.8651 77.301C82.3255 77.6315 81.9104 78.0447 81.5783 78.5818C81.2462 79.1189 81.1217 79.7386 81.1217 80.3997C81.1217 81.0607 81.2878 81.6391 81.5783 82.2176C81.9104 82.7547 82.3255 83.2091 82.8651 83.4984C83.4047 83.7876 83.9443 83.9941 84.6085 83.9941Z" fill="white"/>
<path d="M98.5555 86.928V84.8209H91.9556V76.062H92.9518V83.8706H97.4347V76.062H98.431V83.8706H99.5517V86.928H98.5555Z" fill="white"/>
<path d="M102.084 84.8209V76.062H103.08V83.4162L102.789 83.3335L108.85 76.1033H109.472V84.8622H108.476V77.5081L108.767 77.5907L102.706 84.8209H102.084Z" fill="white"/>
<path d="M111.88 84.8209L115.45 76.062H116.197L119.766 84.8209H118.729L117.608 81.9701L117.525 81.8049L115.657 77.1362H115.948L114.08 81.8049L113.997 81.9701L112.876 84.8209H111.88ZM113.582 82.4246V81.4743H118.231V82.4246H113.582Z" fill="white"/>
<path d="M128.815 86.928V84.8209H122.216V76.062H123.212V83.8706H127.695V76.062H128.691V83.8706H129.812V86.928H128.815Z" fill="white"/>
<path d="M132.344 84.8209V76.062H133.34V83.4162L133.049 83.3335L139.11 76.1033H139.732V84.8622H138.736V77.5081L139.027 77.5907L132.966 84.8209H132.344Z" fill="white"/>
<path d="M142.181 84.8209L145.129 80.8133H146.291L143.427 84.8209H142.181ZM147.287 84.8209V77.0123H145.71C145.336 77.0123 145.046 77.0949 144.755 77.2188C144.506 77.3428 144.298 77.5494 144.132 77.756C143.966 78.0038 143.925 78.2517 143.925 78.5823C143.925 78.8715 144.008 79.1607 144.132 79.4086C144.298 79.6565 144.506 79.8217 144.755 79.9457C145.004 80.0696 145.336 80.1522 145.71 80.1522H147.827V81.1025H145.71C145.17 81.1025 144.672 80.9786 144.257 80.772C143.842 80.5654 143.51 80.2349 143.261 79.863C143.012 79.4912 142.887 79.078 142.887 78.5823C142.887 78.0865 143.012 77.6733 143.261 77.3015C143.51 76.9296 143.842 76.6404 144.257 76.3925C144.672 76.186 145.17 76.062 145.71 76.062H148.325V84.8209H147.287Z" fill="white"/>
</g>
<defs>
<filter id="filter0_d_4003_12412" x="0" y="0" width="188.203" height="127" filterUnits="userSpaceOnUse" color-interpolation-filters="sRGB">
<feFlood flood-opacity="0" result="BackgroundImageFix"/>
<feColorMatrix in="SourceAlpha" type="matrix" values="0 0 0 0 0 0 0 0 0 0 0 0 0 0 0 0 0 0 127 0" result="hardAlpha"/>
<feOffset dy="4"/>
<feGaussianBlur stdDeviation="2"/>
<feComposite in2="hardAlpha" operator="out"/>
<feColorMatrix type="matrix" values="0 0 0 0 0 0 0 0 0 0 0 0 0 0 0 0 0 0 0.25 0"/>
<feBlend mode="normal" in2="BackgroundImageFix" result="effect1_dropShadow_4003_12412"/>
<feBlend mode="normal" in="SourceGraphic" in2="effect1_dropShadow_4003_12412" result="shape"/>
</filter>
</defs>
</svg>
