<svg width="43" height="43" viewBox="0 0 43 43" fill="none" xmlns="http://www.w3.org/2000/svg">
<path d="M37.5387 42.9998H5.43997C5.34792 42.9707 5.25699 42.9224 5.1627 42.9145C2.70652 42.7136 -0.00224374 40.5515 1.39471e-06 36.9737C0.00561424 26.6559 0.00224653 16.3381 1.39471e-06 6.01922C1.39471e-06 5.56906 0.0381687 5.12451 0.133587 4.68669C0.747632 1.87346 3.05676 0.00545866 5.93727 0.00209086C11.943 -0.00239953 17.9488 0.000968265 23.9545 0.000968265C28.3078 0.000968265 32.6623 -0.00239953 37.0156 0.00209086C39.9376 0.00545866 42.267 1.9004 42.863 4.74507C42.9113 4.97632 42.8743 5.2233 42.9989 5.43883V37.5384C42.9663 37.6585 42.9203 37.7775 42.9046 37.8988C42.6093 40.3168 40.784 42.3038 38.393 42.8281C38.1078 42.891 37.8025 42.8505 37.5365 42.9998H37.5387ZM20.0165 27.0062C19.9469 27.2374 19.7774 27.3486 19.645 27.4822C18.1834 28.9505 16.7173 30.4155 15.2523 31.8816C14.4766 32.6573 14.4452 33.6744 15.1771 34.4097C15.9225 35.1585 16.861 35.145 17.6546 34.3558C18.757 33.2602 19.8515 32.1578 20.946 31.0532C21.4882 30.5065 21.5219 30.5053 22.0753 31.0644C23.1788 32.1791 24.2834 33.2916 25.3914 34.4007C25.7978 34.8082 26.276 35.0384 26.8676 34.9104C27.5838 34.7555 28.0721 34.3267 28.2977 33.6329C28.5234 32.9391 28.2517 32.3868 27.7589 31.8962C26.2513 30.3942 24.7526 28.8832 23.254 27.371C23.1541 27.27 22.9936 27.1993 23.0014 27.0107C23.4213 26.94 23.8333 26.8793 24.2419 26.7996C26.0593 26.4426 27.723 25.768 29.0577 24.4287C29.9434 23.5396 29.5595 22.0061 28.3561 21.6267C27.668 21.41 27.1022 21.6974 26.5521 22.0611C24.481 23.4296 22.2168 23.864 19.7819 23.4341C18.51 23.2096 17.3538 22.6999 16.2862 21.9781C15.7968 21.648 15.2658 21.4392 14.6652 21.5964C13.9838 21.7738 13.619 22.2812 13.4405 22.9154C13.2587 23.5621 13.5225 24.0964 13.9962 24.532C14.9695 25.4256 16.0931 26.061 17.3527 26.4595C18.2159 26.7323 19.1061 26.8838 20.0154 27.0051L20.0165 27.0062ZM21.4994 8.01969C17.685 8.01632 14.654 11.0462 14.6506 14.8653C14.6473 18.6204 17.6917 21.6705 21.4512 21.6795C25.2118 21.6884 28.3045 18.6395 28.3134 14.9136C28.3224 11.099 25.2825 8.02193 21.4994 8.01969Z" fill="white"/>
</svg>
