<svg width="43" height="43" viewBox="0 0 43 43" fill="none" xmlns="http://www.w3.org/2000/svg">
<g clip-path="url(#clip0_4001_4076)">
<path d="M43 5.03883V37.9612C42.972 38.0218 42.9305 38.0801 42.9192 38.1441C42.4077 40.9838 40.0147 42.9989 37.137 43C26.6978 43.0011 16.2596 43.0022 5.82041 43C2.61852 43 0.00562995 40.3835 0.00450806 37.1825C0.00226426 26.7279 -0.00783279 16.2744 0.0123613 5.82085C0.0168489 3.49498 1.14099 1.78732 3.1604 0.652994C3.75164 0.320887 4.41019 0.201957 5.04182 0C16.0151 0 26.9883 0 37.9616 0C38.0222 0.0280496 38.0805 0.067319 38.1445 0.0807828C40.5038 0.563236 42.0397 1.9601 42.7835 4.24446C42.8688 4.50701 42.8519 4.79423 43 5.03883ZM29.3544 31.9406C30.1308 31.9384 30.575 31.5502 30.7467 30.7928C32.1087 24.7824 33.4729 18.7719 34.8304 12.7614C34.8876 12.5079 34.9785 12.2565 34.9044 11.9783C34.6901 11.1783 33.9205 10.8653 32.968 11.2086C24.9162 14.1078 16.8643 17.0081 8.81139 19.9085C8.3099 20.0891 8.05972 20.3752 8.07318 20.7589C8.08776 21.1606 8.35926 21.4299 8.89777 21.5757C10.7803 22.0862 12.6617 22.6035 14.5476 23.1016C14.8505 23.1813 15.0087 23.3283 15.1086 23.6267C15.8008 25.7035 16.5098 27.7747 17.2166 29.847C17.5566 30.8456 18.426 31.061 19.2013 30.3362C20.1313 29.4666 21.0647 28.5993 21.9723 27.7085C22.2236 27.4617 22.3807 27.4504 22.6702 27.6502C24.6021 28.9831 26.5508 30.2947 28.4917 31.6152C28.7744 31.8082 29.0661 31.9631 29.3544 31.9406Z" fill="white"/>
<path d="M16.0027 23.0578C15.9982 22.7212 16.199 22.5652 16.4425 22.4261C18.1893 21.4298 19.9327 20.4278 21.6772 19.4281C24.2823 17.9359 26.8873 16.4437 29.4935 14.9526C29.5541 14.9178 29.6147 14.8841 29.6764 14.8493C29.8603 14.745 30.0567 14.6833 30.1924 14.8976C30.3226 15.1029 30.1577 15.2319 30.0152 15.3497C29.084 16.1104 28.1528 16.87 27.2217 17.6307C24.4281 19.9128 21.6369 22.1972 18.8388 24.4737C18.5954 24.6712 18.5157 24.9135 18.4832 25.1985C18.3654 26.2386 18.2487 27.2798 18.1276 28.3199C18.1141 28.4388 18.1332 28.6104 17.9885 28.6396C17.7798 28.6823 17.8011 28.4646 17.763 28.3535C17.1986 26.6907 16.6433 25.0235 16.0868 23.3573C16.0521 23.2519 16.0274 23.1419 16.0049 23.0589L16.0027 23.0578Z" fill="white"/>
</g>
<defs>
<clipPath id="clip0_4001_4076">
<rect width="43" height="43" fill="white"/>
</clipPath>
</defs>
</svg>
