<svg width="43" height="43" viewBox="0 0 43 43" fill="none" xmlns="http://www.w3.org/2000/svg">
<g clip-path="url(#clip0_4001_4071)">
<path d="M42.9929 21.8968C42.9929 24.7855 43.0119 27.6741 42.9857 30.5615C42.9691 32.4353 42.7334 34.283 42.2253 36.0961C41.2935 39.4214 39.1347 41.4487 35.8062 42.2886C33.9675 42.7526 32.092 42.962 30.2094 42.9739C24.5055 43.0084 18.8004 43.0084 13.0953 42.9703C10.9603 42.956 8.83492 42.7419 6.76186 42.1696C3.42377 41.2476 1.48876 39.0288 0.711655 35.7035C0.196365 33.4942 0.0559389 31.248 0.0380882 28.9959C0.00238677 24.3691 -0.0202241 19.741 0.0249977 15.1142C0.0523688 12.3339 0.180894 9.54992 0.896113 6.83617C1.49114 4.57809 2.63477 2.72688 4.80899 1.65852C6.13113 1.00893 7.54372 0.674619 8.98963 0.469987C12.8418 -0.0737145 16.7202 -0.00590052 20.595 0.013135C24.0295 0.0309808 27.4639 -0.0392126 30.8972 0.113071C32.7823 0.196352 34.6506 0.400983 36.4714 0.935167C39.5025 1.82508 41.3768 3.82261 42.1991 6.85283C42.7537 8.90033 42.95 10.993 42.9786 13.0989C43.0179 16.0315 42.9881 18.9642 42.9881 21.8968C42.9905 21.8968 42.9917 21.8968 42.9941 21.8968H42.9929ZM23.9771 17.8946C23.9771 16.8929 23.9771 15.8899 23.9771 14.8882C23.9771 14.6812 23.9569 14.4789 23.9057 14.2767C23.8176 13.9317 23.5987 13.7294 23.2512 13.727C21.5268 13.7175 19.8024 13.7068 18.078 13.7294C17.4985 13.7365 17.2152 14.3076 17.4961 14.812C17.5818 14.9655 17.6936 15.1047 17.8043 15.2415C18.2696 15.8197 18.5576 16.4717 18.5874 17.2165C18.6588 18.9832 18.6659 20.7499 18.579 22.5167C18.5743 22.6035 18.56 22.6927 18.535 22.776C18.3839 23.2888 18.0983 23.403 17.6401 23.121C17.1938 22.8462 16.857 22.45 16.5464 22.0384C15.0553 20.0611 13.9414 17.8815 13.0858 15.5651C12.9382 15.1666 12.8002 14.7609 12.6193 14.3778C12.4146 13.9424 12.0516 13.7175 11.5589 13.7175C10.4391 13.7187 9.31808 13.708 8.19825 13.7223C7.47946 13.7318 7.14862 14.1375 7.27715 14.8477C7.35212 15.2665 7.45209 15.6829 7.57585 16.0886C8.4791 19.0451 9.9857 21.6969 11.7017 24.2453C12.8632 25.9704 14.1961 27.5289 15.93 28.708C17.9876 30.1071 20.2225 30.8804 22.749 30.621C23.6712 30.5258 23.9747 30.2118 23.9759 29.3028C23.9771 28.3594 23.9711 27.4171 23.9795 26.4737C23.9866 25.7182 24.3531 25.4362 25.0957 25.6087C25.5777 25.7206 25.9895 25.9811 26.3822 26.2702C27.4925 27.0876 28.4314 28.0857 29.3478 29.1065C30.7663 30.6876 30.7639 30.696 32.8703 30.6853C33.5903 30.6817 34.315 30.7519 35.0326 30.6294C35.7407 30.508 35.9882 30.1202 35.7907 29.4325C35.6919 29.091 35.5289 28.777 35.3421 28.4772C34.7863 27.5861 34.1115 26.7866 33.4035 26.0168C32.6252 25.1709 31.8219 24.3476 31.0519 23.4958C30.5878 22.9818 30.589 22.6939 30.9603 22.1122C31.04 21.9884 31.1257 21.8683 31.209 21.7469C32.2884 20.167 33.3535 18.5775 34.2865 16.9048C34.6447 16.2623 34.991 15.6127 35.1873 14.8989C35.4135 14.0768 35.1481 13.7246 34.2984 13.7175C33.3106 13.7092 32.3229 13.7401 31.3364 13.7068C30.52 13.6794 30.0225 14.0197 29.7024 14.7704C28.9313 16.574 28.0006 18.2932 26.8356 19.8779C26.337 20.5548 25.8217 21.2199 25.1231 21.71C24.8803 21.8802 24.6114 22.061 24.3103 21.898C24.0378 21.7493 24.0104 21.4447 23.9842 21.164C23.9735 21.0474 23.9795 20.9284 23.9795 20.8106C23.9795 19.8386 23.9795 18.8654 23.9795 17.8934L23.9771 17.8946Z" fill="white"/>
</g>
<defs>
<clipPath id="clip0_4001_4071">
<rect width="43" height="43" fill="white"/>
</clipPath>
</defs>
</svg>
