<svg width="42" height="29" viewBox="0 0 42 29" fill="none" xmlns="http://www.w3.org/2000/svg">
<g clip-path="url(#clip0_4001_4059)">
<path d="M41.0558 25.9551C40.9011 26.2484 40.9122 26.6029 40.6993 26.8871C40.5446 26.876 40.4753 26.7304 40.3789 26.635C36.4252 22.7114 32.4744 18.7838 28.5217 14.8591C28.355 14.6934 28.2004 14.586 28.4595 14.3299C32.4765 10.3561 36.4824 6.37021 40.4904 2.38836C40.5456 2.33312 40.6069 2.28392 40.6762 2.22266C40.9122 2.5159 40.8971 2.88446 41.0558 3.18272V25.9551Z" fill="white"/>
<path d="M2.07779 0.496351C2.63414 0.216165 3.18949 0.132812 3.77397 0.132812C14.9442 0.13683 26.1145 0.13683 37.2848 0.134821C37.6062 0.134821 37.9255 0.138838 38.2378 0.222191C38.4819 0.286463 38.7279 0.350735 38.9478 0.487313C38.9207 0.633934 38.7962 0.703227 38.7048 0.793609C33.5631 5.91228 28.4183 11.0279 23.2785 16.1486C22.442 16.9811 21.4729 17.4541 20.2678 17.3738C19.3288 17.3115 18.5495 16.9088 17.8957 16.2581C12.6646 11.0591 7.43748 5.85503 2.20935 0.65201C2.17219 0.614853 2.14206 0.57167 2.07779 0.495347V0.496351Z" fill="white"/>
<path d="M38.9619 28.6526C38.508 28.8706 38.05 29.0001 37.562 29.0001C26.2049 29.0001 14.8478 29.0001 3.49076 29.0001C3.00269 29.0001 2.54476 28.8706 2.1069 28.6577C2.13904 28.505 2.26256 28.4347 2.35395 28.3433C6.30467 24.4147 10.2594 20.4901 14.2031 16.5544C14.4522 16.3054 14.5787 16.3004 14.8257 16.5544C15.4765 17.2253 16.0961 17.9343 16.8403 18.5047C19.3198 20.4057 22.5635 20.1737 24.8522 17.9463C25.3503 17.4613 25.8404 16.9692 26.3244 16.4711C26.469 16.3224 26.5644 16.2722 26.7412 16.447C30.7923 20.4831 34.8495 24.5131 38.9047 28.5452C38.9227 28.5633 38.9298 28.5904 38.9629 28.6526H38.9619Z" fill="white"/>
<path d="M0.360532 2.19849C0.499119 2.32904 0.596531 2.41842 0.690931 2.51081C4.63462 6.42839 8.5743 10.349 12.526 14.2585C12.7761 14.5056 12.7811 14.6261 12.528 14.8772C8.57631 18.7867 4.63563 22.7073 0.692939 26.6249C0.599544 26.7183 0.501127 26.8076 0.374592 26.9272C0.0934015 26.419 6.17398e-06 25.8998 0.00101042 25.3535C0.00301893 20.4096 0.00201468 15.4656 0.00201468 10.5217C0.00201468 8.26316 0.00502743 6.0056 6.17395e-06 3.74704C-0.000998077 3.21579 0.120516 2.71969 0.360532 2.19849Z" fill="white"/>
</g>
<defs>
<clipPath id="clip0_4001_4059">
<rect width="41.0558" height="28.8672" fill="white" transform="translate(0 0.132812)"/>
</clipPath>
</defs>
</svg>
