<svg width="32" height="32" viewBox="0 0 32 32" fill="none" xmlns="http://www.w3.org/2000/svg">
<path d="M25.6555 32C24.2187 32 23.2497 31.6318 22.2859 31.2209C17.014 28.9731 12.3458 25.8585 8.4259 21.6664C4.98313 17.9834 2.36076 13.7757 0.47927 9.11323C-0.500193 6.68395 0.0355816 4.50813 1.95579 2.73806C2.70399 2.0486 3.48673 1.39981 4.29981 0.789624C5.98352 -0.475606 7.71537 -0.20754 8.93552 1.50829C9.44304 2.22174 9.79359 3.02281 10.1933 3.79468C10.9101 5.1809 11.6353 6.55982 12.4944 7.86678C12.8387 8.39144 13.0836 8.96095 13.2029 9.58469C13.4111 10.6705 12.9915 11.6406 12.0424 12.2205C11.6604 12.4531 11.2471 12.6294 10.8107 12.6961C9.89824 12.8359 9.75592 13.7632 10.1944 14.3327C10.4644 14.6832 10.7427 15.0274 11.0273 15.3664C12.9706 17.6778 15.1304 19.766 17.5037 21.6372C17.7758 21.8511 18.0573 22.0221 18.4194 22.02C18.8861 22.0169 19.1738 21.8073 19.3078 21.3587C19.3852 21.098 19.4459 20.831 19.5443 20.5775C20.1219 19.0765 21.3954 18.4643 22.9431 18.9326C23.2685 19.0306 23.5814 19.1589 23.8786 19.3216C25.9579 20.4586 28.0434 21.583 30.0892 22.7783C30.9305 23.2696 31.5469 23.9455 31.8399 24.8895C32.1046 25.7427 32.0555 26.5918 31.5595 27.3261C30.6616 28.6539 29.6685 29.917 28.4024 30.9257C27.4972 31.6464 26.4466 31.9938 25.6544 32.0021L25.6555 32Z" fill="white"/>
</svg>
