<svg width="128" height="128" viewBox="0 0 128 128" fill="none" xmlns="http://www.w3.org/2000/svg">
<g clip-path="url(#clip0_4051_17)">
<path d="M61.7001 39.1092H66.2904C66.2904 39.1092 68.9079 10.653 69.11 9.10368C69.8318 3.65687 68.6962 0.0673634 64.1059 0C64.0674 0 63.9231 0 63.8846 0C59.2942 0.0673634 58.1683 3.65687 58.8804 9.10368C59.0825 10.653 61.7001 39.1092 61.7001 39.1092Z" fill="#2A327B"/>
<path d="M106.814 107.608C106.304 107.589 106.044 107.406 105.621 107.021C105.111 106.559 104.813 105.972 104.793 105.327C104.774 104.808 104.976 104.288 105.332 103.855C105.659 103.47 106.054 103.201 106.497 103.056C106.314 102.094 106.093 101.16 105.823 100.246C104.938 99.7362 104.351 98.822 104.37 97.8212C104.37 97.494 104.447 97.186 104.562 96.8973C103.735 95.2036 102.58 93.6831 101.271 92.307C101.098 92.461 100.906 92.6053 100.703 92.7112C100.376 92.894 99.9432 93.0095 99.5775 92.971C98.8558 92.894 98.1725 92.6438 97.6529 92.0472C97.2102 91.5371 96.9889 90.9213 96.9792 90.2861C96.9792 89.9108 97.114 89.4874 97.316 89.1217C97.5085 88.7752 97.778 88.5154 98.0763 88.2845C96.219 85.4552 94.6215 82.0485 93.2357 78.1511C92.9278 78.2666 92.6006 78.3243 92.2445 78.3243C91.6575 78.3243 91.1186 78.2377 90.6278 77.9105C89.8387 77.3812 89.3287 76.6787 89.2806 75.6779C89.2517 75.1005 89.2613 74.5135 89.5596 74.0131C90.0119 73.2528 90.6375 72.7331 91.4843 72.5792C91.2726 71.8285 91.0705 71.0683 90.878 70.2888C90.7914 70.2407 90.6856 70.2022 90.599 70.1445C90.4642 70.0579 90.3103 69.9905 90.1852 69.875C89.5789 69.288 89.4057 68.547 89.396 67.7001C89.396 67.5173 89.4249 67.3344 89.473 67.1516C89.55 66.834 89.7136 66.5261 89.9253 66.2374C89.6174 64.8324 89.3287 63.4081 89.0496 61.9358L87.5676 55.9308C87.4136 55.2957 87.2115 54.6798 86.9998 54.0639C86.7592 54.5162 86.3936 54.9107 85.9605 55.1802C85.5467 55.44 85.0752 55.594 84.6036 55.5844C83.3333 55.5459 82.0053 54.2948 82.0246 52.8994C82.0438 51.5522 83.3911 50.2434 84.7383 50.2915C84.7768 50.2915 84.8153 50.3011 84.8442 50.3108C84.9693 50.3204 85.0848 50.3493 85.2099 50.3781C84.4881 49.2426 83.6413 48.184 82.6597 47.2409C81.6781 46.2978 80.5907 45.4702 79.4359 44.7196C79.5321 44.9602 79.6091 45.22 79.6187 45.4895C79.6476 46.0091 79.4359 46.5288 79.0798 46.9618C78.6083 47.5296 77.9924 47.8568 77.2899 47.8761C76.7798 47.8953 76.2506 47.6836 75.8175 47.3275C75.2497 46.856 75.0188 46.2208 74.8744 45.4991C75.0476 44.9698 75.1439 44.3828 75.6058 43.9209C75.9619 43.5648 76.3853 43.3242 76.828 43.228C73.2288 41.4765 68.9561 40.4565 64.0963 40.0715H64.0289C56.2148 40.6778 49.9307 42.9585 45.4751 47.2217C43.0308 49.5698 41.3756 52.6204 40.5672 55.9115L39.0852 61.9165C36.5639 75.2641 32.8782 86.023 27.0657 92.0472C25.4586 93.712 24.0247 95.5597 23.1682 97.7153C21.5804 101.776 20.8875 106.299 21.1088 111.342C21.1088 111.342 21.1281 111.342 21.1281 111.352C21.1281 111.611 21.1281 111.871 21.1281 112.121C32.1564 117.847 44.4647 121.437 57.4947 122.351C58.0817 125.498 60.7859 127.875 64.077 128C67.3586 127.884 70.0724 125.498 70.6594 122.351C70.7171 122.043 70.7364 121.726 70.746 121.398C75.3845 121.013 79.8497 120.417 84.1032 119.56C84.2668 119.416 84.4593 119.3 84.671 119.3C84.7768 119.3 84.8827 119.339 84.9789 119.387C92.2446 117.847 98.9039 115.586 104.899 112.497C105.072 111.515 105.833 110.726 106.911 110.678C106.939 109.687 106.853 108.561 106.805 107.598L106.814 107.608ZM54.8098 83.7519C54.3286 83.7519 54.0206 83.4439 54.0206 82.9531C54.0206 82.4623 54.3286 82.164 54.8194 82.164C55.3102 82.164 55.6085 82.472 55.6085 82.9627C55.6085 83.4535 55.3006 83.7519 54.8098 83.7519ZM54.7713 76.6113C54.1458 76.6017 53.6165 76.0147 53.6261 75.3603C53.6357 74.7637 54.2131 74.2248 54.829 74.2344C55.4738 74.2344 56.0127 74.8022 56.0127 75.4469C56.0127 76.0821 55.4353 76.621 54.7809 76.6113H54.7713ZM55.6277 68.7202C55.3968 68.9223 55.06 68.9319 54.7905 69.0763C54.5403 68.8838 54.1746 68.9416 53.9725 68.6817C53.7801 68.4411 53.6261 68.1043 53.6646 67.8445C53.7031 67.5943 53.7512 67.2767 53.9822 67.065C54.2227 66.8533 54.5499 66.7186 54.8098 66.7282C55.0792 66.7282 55.4064 66.8437 55.647 67.0554C55.8876 67.2767 55.8395 67.6328 56.0127 67.8926C55.8491 68.1524 55.878 68.5085 55.6277 68.7202ZM54.7905 61.8107C53.9725 61.8107 53.5106 61.3006 53.4914 60.4441C53.4914 60.0785 53.5972 59.7898 53.8474 59.5395C54.1169 59.2605 54.4248 59.1546 54.8098 59.1642C55.647 59.1835 56.1378 59.6646 56.1378 60.5019C56.1378 61.3199 55.6277 61.8107 54.7905 61.8107ZM54.7809 54.2852C54.4152 54.2852 54.1361 54.1793 53.8763 53.9291C53.5684 53.6404 53.4914 53.3036 53.501 52.8994C53.5202 52.1296 54.0303 51.6388 54.8386 51.6388C55.6662 51.6388 56.157 52.1392 56.1474 52.9861C56.1474 53.804 55.6374 54.2756 54.7809 54.2852ZM54.7809 46.8752C54.1554 46.8464 53.4914 46.1631 53.4914 45.5472C53.4914 44.9025 54.2131 44.1999 54.8483 44.2288C55.4738 44.2577 56.1378 44.9409 56.1378 45.5568C56.1378 46.2016 55.416 46.9041 54.7809 46.8752ZM62.3737 44.0941C62.7971 44.0941 63.1051 44.2384 63.3842 44.5368C63.7498 44.9217 63.8076 45.0276 63.8076 45.5472C63.8076 46.4133 63.2109 47.0003 62.3256 47.0196C61.9022 47.0196 61.6038 46.8752 61.3151 46.5865C61.0264 46.2978 60.8725 45.9899 60.8917 45.5761C60.9206 44.71 61.498 44.123 62.3737 44.1037V44.0941ZM61.2093 51.8313C61.4884 51.5426 61.8829 51.3308 62.3833 51.3405C62.8645 51.3405 63.1436 51.658 63.5189 51.812C63.644 52.1969 64.0867 52.4664 63.9134 52.9572C64.077 53.448 63.7402 53.8137 63.49 54.0735C63.2109 54.3622 62.8164 54.5739 62.316 54.5643C61.8348 54.5643 61.4691 54.3333 61.2093 54.0735C60.9495 53.804 60.7377 53.4287 60.7474 52.9476C60.7474 52.476 60.9495 52.0911 61.2189 51.8313H61.2093ZM62.3641 58.8948C63.1628 58.8948 63.9616 59.6743 63.9423 60.4826C63.9712 61.3102 63.1628 62.0705 62.3833 62.0801C61.5653 62.0897 60.8051 61.3295 60.7666 60.5308C60.7377 59.7224 61.5269 58.8948 62.3641 58.9044V58.8948ZM63.6729 67.8926C63.6729 68.7395 63.1436 69.211 62.2678 69.2014C61.5076 69.2014 61.0264 68.6625 61.0264 67.8445C61.0264 67.0361 61.5365 66.5646 62.4026 66.555C62.7683 66.555 63.0473 66.6704 63.3072 66.911C63.6151 67.1997 63.7113 67.5462 63.6729 67.883V67.8926ZM62.393 98.5429C62.0465 98.5622 61.7193 98.2831 61.6904 97.9367C61.6616 97.5517 61.9503 97.2245 62.3448 97.2149C62.7009 97.2149 62.9992 97.494 63.0088 97.8501C63.0185 98.1965 62.7298 98.5141 62.3833 98.5333L62.393 98.5429ZM63.2783 90.2861C63.2783 90.8443 62.8164 91.2484 62.316 91.2869C61.9984 91.3062 61.8637 91.0848 61.6616 90.9309C61.4402 90.7673 61.4306 90.5459 61.4114 90.3054C61.3825 89.9782 61.6231 89.8531 61.7771 89.6606C61.931 89.4681 62.1139 89.4393 62.3448 89.42C62.672 89.3815 62.8164 89.5836 63.0088 89.7568C63.1821 89.93 63.3938 90.0744 63.2783 90.2957V90.2861ZM63.1821 83.7615C62.9511 83.9828 62.6239 84.0791 62.3545 84.1079C62.1043 84.1272 61.8156 83.954 61.575 83.8C61.2863 83.6268 61.2478 83.2515 61.1997 82.982C61.1515 82.7222 61.3151 82.3854 61.5076 82.1448C61.7097 81.8849 62.0754 81.9427 62.3448 81.7406C62.6143 81.8561 62.9126 81.9427 63.1628 82.1063C63.4323 82.2891 63.3649 82.674 63.5478 82.9243C63.3842 83.1841 63.413 83.5305 63.1917 83.7615H63.1821ZM63.5285 76.4189C63.2206 76.7749 62.7971 76.8904 62.3833 76.9963C62.1812 77.0444 61.5557 76.7557 61.3633 76.6113C60.9879 76.3226 60.834 75.8896 60.7859 75.4662C60.7474 75.0812 60.9398 74.7059 61.1997 74.3884C61.498 74.0227 61.9214 73.8591 62.3545 73.8494C62.7298 73.8494 63.1147 74.0034 63.4226 74.2921C63.7498 74.6001 63.8172 75.0042 63.9712 75.3988C63.8268 75.7452 63.7883 76.1206 63.5381 76.4189H63.5285ZM68.3306 44.1133C68.7444 43.6995 69.2255 43.5359 69.8125 43.5456C70.3611 43.5456 70.7845 43.738 71.1598 44.1133C71.5736 44.5271 71.7468 44.9987 71.7372 45.5953C71.7372 46.1439 71.5447 46.5769 71.1791 46.9522C70.7749 47.366 70.3033 47.6066 69.7356 47.5296C69.1293 47.597 68.6866 47.3468 68.3017 46.9522C67.9071 46.5577 67.7435 46.0957 67.7435 45.528C67.7435 44.9602 67.9264 44.5079 68.3209 44.1133H68.3306ZM69.7644 106.078C69.2063 106.078 68.9657 105.857 68.9561 105.318C68.9561 104.721 69.1389 104.5 69.6971 104.49C70.3033 104.481 70.5343 104.702 70.5343 105.289C70.5343 105.847 70.3033 106.078 69.7548 106.078H69.7644ZM69.7356 99.2069C68.9176 99.2069 68.4268 98.6969 68.4268 97.8501C68.4268 97.0609 68.9368 96.5605 69.7356 96.5605C70.5728 96.5605 71.0732 97.0513 71.0732 97.8789C71.0732 98.7065 70.5728 99.2069 69.7356 99.1973V99.2069ZM69.6874 91.9413C68.8695 91.8932 68.1285 91.133 68.1573 90.3054C68.1862 89.4874 68.9464 88.7368 69.7741 88.7656C70.5535 88.7656 71.3427 89.5259 71.333 90.3631C71.333 91.1715 70.5247 91.9894 69.6778 91.9413H69.6874ZM69.7933 84.6565C68.8021 84.6853 68.0996 83.954 68.0419 83.0109C67.9841 82.0485 68.7828 81.2402 69.7356 81.2402C70.6883 81.2402 71.3908 81.9619 71.4678 82.9243C71.4293 83.9155 70.746 84.6276 69.7933 84.6565ZM69.7356 77.5544C68.7251 77.5544 67.6088 76.5055 67.6088 75.4084C67.6088 74.398 68.6577 73.2239 69.7548 73.3009C70.7653 73.2239 71.8816 74.3306 71.8816 75.4277C71.8816 76.4381 70.8326 77.5544 69.7356 77.5544ZM67.8013 67.8349C67.9264 67.5077 67.9745 67.0457 68.2536 66.6704C68.6193 66.1796 69.2063 66.1123 69.7163 65.9006C70.1301 66.0642 70.592 66.1123 70.9673 66.3914C71.4581 66.757 71.5255 67.3441 71.7276 67.8541C71.564 68.2679 71.5159 68.7298 71.2368 69.1051C70.8711 69.5959 70.2841 69.6633 69.7741 69.8654C69.3602 69.7018 68.8887 69.6633 68.523 69.3746C68.0611 68.9993 67.8975 68.4604 67.7916 67.8252L67.8013 67.8349ZM71.2753 62.0705C70.7749 62.2918 70.3515 62.7634 69.7741 62.5998C68.7155 62.773 67.4548 61.4931 67.6377 60.473C67.4645 59.4818 68.7155 58.173 69.8222 58.3751C70.4284 58.2693 70.823 58.7023 71.3042 58.9333C71.5736 59.4433 71.9104 59.8956 71.9008 60.5404C71.9008 61.1659 71.5351 61.5797 71.2849 62.0705H71.2753ZM71.8142 53.6982C71.6698 54.0927 71.4293 54.4969 70.977 54.7279C70.4284 55.0166 70.4573 55.0647 69.7067 55.0647C68.7828 55.1609 68.2054 54.6413 67.7724 53.881C67.6954 53.7367 67.5992 53.6019 67.6377 53.4095C67.6665 53.2363 67.6665 53.0534 67.6377 52.8802C67.4933 51.9852 68.2536 51.2442 68.9753 50.8785C69.0908 50.8208 69.187 50.84 69.2833 50.8304C69.5046 50.8304 69.7259 50.8593 69.9376 50.8304C70.746 50.7053 71.5736 51.4944 71.8238 52.2162C71.9778 52.6685 71.9778 53.2363 71.8142 53.6982ZM77.2899 113.883C76.6547 113.883 76.2313 113.44 76.2313 112.805C76.2313 112.17 76.674 111.756 77.3188 111.765C77.9154 111.765 78.3388 112.198 78.3388 112.805C78.3388 113.44 77.9154 113.883 77.2803 113.883H77.2899ZM77.2803 106.617C76.6355 106.598 75.9426 105.876 75.9715 105.25C76.0004 104.625 76.7029 103.961 77.3091 103.97C77.9539 103.99 78.6468 104.711 78.6179 105.337C78.589 105.963 77.8865 106.627 77.2803 106.617ZM77.3091 99.64C76.443 99.64 75.5288 98.745 75.5577 97.8597C75.5769 97.0898 76.3949 96.1467 77.3188 96.1563C78.1271 96.1563 79.1279 97.0224 79.0125 97.8982C79.1183 98.745 78.1367 99.6304 77.3091 99.6304V99.64ZM77.3091 92.3359C76.2506 92.3359 75.3267 91.4024 75.3267 90.3727C75.3267 89.3142 76.2602 88.3903 77.2899 88.3903C78.3484 88.3903 79.2434 89.3238 79.2819 90.3535C79.253 91.412 78.3388 92.3359 77.3091 92.3359ZM77.2899 84.9452C76.2506 85.0029 75.3075 84.0117 75.2978 82.9724C75.2978 81.8849 76.2794 80.9418 77.338 80.9707C78.3484 80.99 79.3012 81.9138 79.2915 82.9916C79.2819 83.9828 78.3773 85.0125 77.2899 84.9452ZM77.2706 77.8046C76.1736 77.9682 74.7301 76.6017 74.9225 75.3796C74.7686 74.2921 76.1158 72.8486 77.3669 73.0411C78.4062 72.8871 79.8786 74.1959 79.6861 75.495C79.8304 76.5247 78.5024 77.9779 77.2803 77.795L77.2706 77.8046ZM75.0284 67.9118C75.0188 66.7763 76.2121 65.5541 77.2899 65.6407C78.3869 65.5445 79.561 66.7763 79.561 67.9022C79.561 68.9704 78.4062 70.1733 77.2706 70.1541C76.1928 70.1348 75.0476 68.98 75.0284 67.9118ZM77.2899 63.004C75.9811 62.9847 74.7782 61.8876 74.7878 60.473C74.7974 59.1257 75.9522 57.9613 77.338 57.9902C78.7238 58.0191 79.8016 59.1739 79.8016 60.4826C79.8016 61.8491 78.6468 62.9847 77.2899 63.004ZM77.2899 55.4689C75.9715 55.4689 74.7782 54.3526 74.7878 52.9379C74.7974 51.6099 75.9041 50.4744 77.261 50.4551C78.6853 50.4359 79.7823 51.6484 79.8016 52.9476C79.7919 54.3237 78.6371 55.4689 77.2899 55.4689ZM84.6517 114.277C83.8241 114.239 83.2467 113.671 83.2467 112.814C83.2467 111.967 83.8915 111.342 84.748 111.38C85.5756 111.419 86.1337 111.987 86.153 112.843C86.1337 113.69 85.4986 114.316 84.6517 114.277ZM85.7584 106.424C85.4505 106.704 85.0752 106.867 84.6902 106.857C84.2668 106.848 83.8338 106.684 83.5354 106.319C83.2756 106.001 83.0831 105.626 83.1312 105.241C83.1794 104.817 83.3333 104.384 83.7086 104.096C83.8915 103.951 84.5459 103.663 84.7383 103.711C85.1522 103.826 85.5756 103.932 85.8931 104.288C86.1626 104.586 86.1145 104.991 86.3454 105.26C86.153 105.703 86.1049 106.117 85.768 106.424H85.7584ZM86.1337 99.1685C85.7584 99.6208 85.2003 99.6785 84.7095 99.871C84.2764 99.6977 83.7953 99.6496 83.4199 99.3321C82.9677 98.9567 82.9099 98.3986 82.7174 97.9078C82.8907 97.4747 82.9292 96.9936 83.2564 96.6183C83.6413 96.1852 84.1609 96.0601 84.7383 95.935C85.1137 96.089 85.5948 96.1371 85.9798 96.4547C86.4321 96.83 86.4898 97.3881 86.6823 97.8789C86.509 98.312 86.4609 98.7931 86.1434 99.1685H86.1337ZM84.7191 92.4899C83.622 92.4995 82.5731 91.3832 82.5635 90.3823C82.5538 89.2853 83.6702 88.169 84.671 88.246C85.768 88.1497 86.817 89.3334 86.8266 90.3342C86.8362 91.4313 85.7199 92.4802 84.7191 92.4899ZM82.5731 82.9627C82.5731 81.8079 83.5932 80.8264 84.6902 80.8264C85.845 80.8264 86.8651 81.8464 86.817 82.9435C86.8651 84.0983 85.8065 85.0799 84.7095 85.0799C83.5547 85.0799 82.5731 84.0598 82.5731 82.9627ZM84.6614 77.9297C83.2756 77.9009 82.1593 76.7076 82.1978 75.3699C82.2363 74.0323 83.343 72.9256 84.7095 72.916C86.0182 72.916 87.2019 74.0323 87.2115 75.4469C87.1827 76.7942 86.0471 77.9586 84.6614 77.9297ZM82.3229 67.8541C82.3518 66.6127 83.4392 65.5156 84.6902 65.5156C85.9701 65.5156 87.0961 66.6416 87.0768 67.9022C87.0864 69.1533 85.9605 70.2888 84.6806 70.2792C83.4296 70.2696 82.294 69.1436 82.3229 67.8637V67.8541ZM84.7672 63.1098C83.3045 63.1579 82.1016 62.0031 82.0823 60.5211C82.0631 59.0391 83.2082 57.9132 84.6421 57.8651C85.8065 57.8266 86.7496 58.558 87.1538 59.6069C87.2019 59.7801 87.25 59.963 87.2981 60.1362C87.3174 60.2421 87.3463 60.3383 87.3559 60.4538C87.2789 61.9358 86.2107 63.0617 84.7768 63.1098H84.7672ZM90.3103 81.2402C90.8299 80.6531 91.5132 80.4511 92.2638 80.3067C92.8508 80.4703 93.4763 80.5858 93.9768 81.0477C94.5349 81.5577 94.8236 82.2218 94.8525 82.9243C94.8813 83.5498 94.6119 84.1657 94.1692 84.6757C93.6496 85.2627 92.9663 85.5707 92.2445 85.5707C91.619 85.5707 91.0031 85.3301 90.5027 84.8682C89.9446 84.3581 89.6559 83.6941 89.627 82.9916C89.5981 82.3661 89.8676 81.7502 90.3103 81.2402ZM92.1868 114.826C91.619 114.797 91.2437 114.441 90.7914 114.219C90.599 113.748 90.137 113.382 90.2621 112.814C90.1659 112.208 90.6375 111.852 90.8299 111.39C91.3015 111.198 91.6671 110.822 92.2445 110.822C92.8316 110.822 93.1876 111.226 93.6592 111.409C93.8805 111.891 94.2366 112.285 94.2366 112.891C94.2366 113.7 93.1973 114.883 92.1868 114.826ZM90.2429 105.27C90.2429 104.702 90.4257 104.25 90.8203 103.855C91.2149 103.46 91.6671 103.229 92.2349 103.306C92.8027 103.229 93.255 103.46 93.6496 103.855C94.0634 104.269 94.227 104.74 94.227 105.337C94.227 105.886 94.0345 106.309 93.6688 106.694C93.2646 107.108 92.7931 107.291 92.1964 107.281C91.6287 107.281 91.1764 107.079 90.7914 106.684C90.3969 106.29 90.2333 105.828 90.2333 105.26L90.2429 105.27ZM92.1579 100.294C91.0609 100.266 89.7713 99.1492 89.8291 97.7923C89.8676 96.6856 91.0128 95.3384 92.283 95.5116C93.4667 95.3865 94.6889 96.676 94.6504 97.9559C94.6215 99.0915 93.486 100.343 92.1579 100.304V100.294ZM92.2253 92.9903C90.9165 93.0095 89.5596 91.6815 89.5885 90.3054C89.6174 88.9677 90.9165 87.6974 92.2445 87.6974C93.5533 87.6974 94.9102 89.0062 94.8813 90.3823C94.8525 91.72 93.5533 92.9999 92.2253 92.9806V92.9903ZM100.915 114.248C100.54 114.575 100.059 114.624 99.6256 114.797C99.1252 114.604 98.5767 114.537 98.2014 114.094C97.8742 113.719 97.8261 113.238 97.6529 112.805C97.8453 112.304 97.9127 111.756 98.3554 111.38C98.7307 111.053 99.2118 111.005 99.6449 110.832C100.145 111.024 100.694 111.092 101.069 111.534C101.396 111.91 101.444 112.391 101.598 112.785C101.454 113.334 101.348 113.873 100.915 114.248ZM99.6449 107.252C98.5863 107.252 97.6914 106.319 97.6529 105.289C97.6817 104.23 98.5959 103.306 99.6256 103.306C100.684 103.306 101.608 104.24 101.608 105.27C101.608 106.328 100.675 107.252 99.6449 107.252ZM99.616 100.246C98.3073 100.246 97.2487 99.3032 97.2679 97.8501C97.2872 96.4354 98.2976 95.5212 99.616 95.5116C101.04 95.5116 101.964 96.5317 102.012 97.8789C101.964 99.2262 101.04 100.246 99.616 100.246Z" fill="#2A327B"/>
</g>
<defs>
<clipPath id="clip0_4051_17">
<rect width="85.8594" height="128" fill="white" transform="translate(21.0703)"/>
</clipPath>
</defs>
</svg>
