<svg width="1683" height="287" viewBox="0 0 1683 287" fill="none" xmlns="http://www.w3.org/2000/svg">
<g clip-path="url(#clip0_6073_2)">
<path d="M21.5 144C33.3741 144 43 134.374 43 122.5C43 110.626 33.3741 101 21.5 101C9.62588 101 0 110.626 0 122.5C0 134.374 9.62588 144 21.5 144Z" fill="url(#paint0_linear_6073_2)"/>
</g>
<g clip-path="url(#clip1_6073_2)">
<path d="M1628.01 11.4374C1642.1 11.4374 1653.59 22.8977 1653.59 37.0114C1653.59 51.1252 1642.13 62.5855 1628.01 62.5855C1613.9 62.5855 1602.44 51.1252 1602.44 37.0114C1602.44 22.8977 1613.9 11.4374 1628.01 11.4374ZM1628.01 0C1607.56 0 1591 16.5614 1591 37.0114C1591 57.4615 1607.56 74.0229 1628.01 74.0229C1648.46 74.0229 1665.02 57.4615 1665.02 37.0114C1665.02 16.5614 1648.44 0 1628.01 0Z" fill="#2A327B"/>
</g>
<g clip-path="url(#clip2_6073_2)">
<path d="M1474 112C1480.08 112 1485 107.075 1485 101C1485 94.9249 1480.08 90 1474 90C1467.92 90 1463 94.9249 1463 101C1463 107.075 1467.92 112 1474 112Z" fill="url(#paint1_linear_6073_2)"/>
</g>
<g clip-path="url(#clip3_6073_2)">
<path d="M1660.42 281.149C1669.35 281.149 1676.59 273.91 1676.59 264.98C1676.59 256.05 1669.35 248.811 1660.42 248.811C1651.49 248.811 1644.25 256.05 1644.25 264.98C1644.25 273.91 1651.49 281.149 1660.42 281.149Z" fill="#2A327B"/>
<path d="M1660.42 248.811C1669.35 248.811 1676.59 256.047 1676.59 264.98C1676.59 273.913 1669.35 281.149 1660.42 281.149C1651.49 281.149 1644.25 273.913 1644.25 264.98C1644.25 256.047 1651.49 248.811 1660.42 248.811ZM1660.42 242.96C1648.27 242.96 1638.4 252.829 1638.4 264.98C1638.4 277.131 1648.27 287 1660.42 287C1672.57 287 1682.44 277.131 1682.44 264.98C1682.44 252.829 1672.55 242.96 1660.42 242.96Z" fill="white"/>
</g>
<defs>
<linearGradient id="paint0_linear_6073_2" x1="38.9844" y1="102.698" x2="6.62248" y2="139.366" gradientUnits="userSpaceOnUse">
<stop stop-color="white"/>
<stop offset="1" stop-color="#2A327B"/>
</linearGradient>
<linearGradient id="paint1_linear_6073_2" x1="1463" y1="101" x2="1485" y2="101" gradientUnits="userSpaceOnUse">
<stop stop-color="#EFB97F"/>
<stop offset="1" stop-color="#BE1622"/>
</linearGradient>
<clipPath id="clip0_6073_2">
<rect width="43" height="43" fill="white" transform="translate(0 101)"/>
</clipPath>
<clipPath id="clip1_6073_2">
<rect width="74" height="74" fill="white" transform="translate(1591)"/>
</clipPath>
<clipPath id="clip2_6073_2">
<rect width="22" height="22" fill="white" transform="translate(1463 90)"/>
</clipPath>
<clipPath id="clip3_6073_2">
<rect width="44.04" height="44.04" fill="white" transform="translate(1638.4 242.96)"/>
</clipPath>
</defs>
</svg>
