<svg width="791" height="791" viewBox="0 0 791 791" fill="none" xmlns="http://www.w3.org/2000/svg">
<g clip-path="url(#clip0_6132_6)">
<path d="M0.54248 394.877C0.54248 180.568 171.091 6.25812 383.834 0.0150305V88.4129C220.189 94.6007 88.9094 229.628 88.9094 394.877H0.54248Z" fill="url(#paint0_radial_6132_6)"/>
<path d="M88.9094 394.877C88.9094 563.993 226.486 701.617 395.542 701.617C564.599 701.617 702.176 563.993 702.176 394.877H790.543C790.543 613.109 613.698 790.015 395.542 790.015C177.387 790.015 0.54248 613.109 0.54248 394.877H88.9094Z" fill="url(#paint1_radial_6132_6)"/>
</g>
<defs>
<radialGradient id="paint0_radial_6132_6" cx="0" cy="0" r="1" gradientUnits="userSpaceOnUse" gradientTransform="translate(138.671 148.468) scale(239.364 239.448)">
<stop stop-color="#2A327B"/>
<stop offset="1" stop-color="#BECCD2" stop-opacity="0"/>
</radialGradient>
<radialGradient id="paint1_radial_6132_6" cx="0" cy="0" r="1" gradientUnits="userSpaceOnUse" gradientTransform="translate(395.542 592.446) scale(356.008 356.133)">
<stop stop-color="white"/>
<stop offset="1" stop-color="#2A327B"/>
</radialGradient>
<clipPath id="clip0_6132_6">
<rect width="790" height="790" fill="white" transform="matrix(1 0 0 -1 0.54248 790.015)"/>
</clipPath>
</defs>
</svg>
