<svg width="691" height="1069" viewBox="0 0 691 1069" fill="none" xmlns="http://www.w3.org/2000/svg">
<g clip-path="url(#clip0_4003_11991)">
<path d="M-194.06 350.256C-94.2968 160.157 138.181 84.9575 329.864 178.488L288.714 256.9C140.624 186.184 -38.7231 244.825 -115.648 391.406L-194.06 350.256Z" fill="url(#paint0_radial_4003_11991)"/>
<path d="M-115.648 391.406C-194.373 541.418 -136.361 727.561 13.6511 806.286C163.663 885.011 349.806 826.999 428.531 676.987L506.943 718.137C405.354 911.716 166.08 986.287 -27.4989 884.698C-221.078 783.109 -295.649 543.836 -194.06 350.256L-115.648 391.406Z" fill="url(#paint1_radial_4003_11991)"/>
</g>
<defs>
<radialGradient id="paint0_radial_4003_11991" cx="0" cy="0" r="1" gradientUnits="userSpaceOnUse" gradientTransform="translate(43.2134 196.006) rotate(27.6901) scale(239.87 239.87)">
<stop stop-color="#2A327B"/>
<stop offset="1" stop-color="#BECCD2" stop-opacity="0"/>
</radialGradient>
<radialGradient id="paint1_radial_4003_11991" cx="0" cy="0" r="1" gradientUnits="userSpaceOnUse" gradientTransform="translate(64.4713 709.447) rotate(27.6901) scale(356.76 356.76)">
<stop stop-color="white"/>
<stop offset="1" stop-color="#2A327B"/>
</radialGradient>
<clipPath id="clip0_4003_11991">
<rect width="791.669" height="791.393" fill="white" transform="matrix(0.885474 0.46469 0.46469 -0.885474 -378 700.757)"/>
</clipPath>
</defs>
</svg>
