<svg width="1643" height="756" viewBox="0 0 1643 756" fill="none" xmlns="http://www.w3.org/2000/svg">
<g clip-path="url(#clip0_6040_1097)">
<path d="M1402.78 507.8C1415.59 507.8 1426 518.169 1426 530.928C1426 543.686 1415.59 554.056 1402.78 554.056C1389.98 554.056 1379.57 543.686 1379.57 530.928C1379.57 518.169 1389.98 507.8 1402.78 507.8ZM1402.78 495.856C1383.35 495.856 1367.58 511.564 1367.58 530.928C1367.58 550.292 1383.35 566 1402.78 566C1422.22 566 1437.98 550.292 1437.98 530.928C1437.98 511.564 1422.22 495.856 1402.78 495.856Z" fill="white"/>
<path d="M1313.93 328.005C1322.25 328.005 1328.99 321.288 1328.99 313.002C1328.99 304.717 1322.25 298 1313.93 298C1305.61 298 1298.87 304.717 1298.87 313.002C1298.87 321.288 1305.61 328.005 1313.93 328.005Z" fill="url(#paint0_linear_6040_1097)"/>
<path d="M1432.5 365.122C1432.08 365.068 1431.68 364.905 1431.37 364.579C1430.63 363.837 1430.61 362.625 1431.37 361.883L1436.75 356.454C1437.49 355.712 1438.69 355.694 1439.46 356.454C1440.2 357.196 1440.22 358.408 1439.46 359.15L1434.08 364.579C1433.64 365.014 1433.06 365.195 1432.5 365.14V365.122Z" fill="url(#paint1_linear_6040_1097)"/>
<path d="M1262.69 536.646C1262.27 536.592 1261.87 536.429 1261.56 536.104C1260.82 535.362 1260.8 534.149 1261.56 533.407L1272.17 522.694C1272.92 521.952 1274.12 521.934 1274.88 522.694C1275.62 523.436 1275.64 524.648 1274.88 525.39L1264.27 536.104C1263.84 536.538 1263.25 536.719 1262.69 536.665V536.646ZM1283.92 515.201C1283.51 515.147 1283.11 514.984 1282.8 514.658C1282.05 513.917 1282.03 512.704 1282.8 511.962L1293.4 501.249C1294.15 500.507 1295.35 500.488 1296.11 501.249C1296.86 501.991 1296.87 503.203 1296.11 503.945L1285.5 514.658C1285.07 515.093 1284.49 515.274 1283.92 515.219V515.201ZM1305.16 493.756C1304.74 493.702 1304.34 493.539 1304.03 493.213C1303.29 492.471 1303.27 491.259 1304.03 490.517L1314.64 479.803C1315.38 479.061 1316.58 479.043 1317.34 479.803C1318.09 480.545 1318.11 481.758 1317.34 482.5L1306.74 493.213C1306.3 493.648 1305.72 493.829 1305.16 493.774V493.756ZM1326.39 472.311C1325.97 472.257 1325.57 472.094 1325.26 471.768C1324.52 471.026 1324.5 469.814 1325.26 469.072L1335.87 458.358C1336.62 457.616 1337.81 457.598 1338.58 458.358C1339.32 459.1 1339.34 460.313 1338.58 461.055L1327.97 471.768C1327.53 472.203 1326.95 472.384 1326.39 472.329V472.311ZM1347.62 450.866C1347.2 450.812 1346.8 450.649 1346.5 450.323C1345.75 449.581 1345.73 448.369 1346.5 447.627L1357.1 436.913C1357.85 436.171 1359.05 436.153 1359.81 436.913C1360.55 437.655 1360.57 438.868 1359.81 439.61L1349.2 450.323C1348.77 450.758 1348.19 450.939 1347.62 450.884V450.866ZM1368.85 429.421C1368.44 429.367 1368.04 429.204 1367.73 428.878C1366.98 428.136 1366.97 426.924 1367.73 426.182L1378.34 415.468C1379.08 414.726 1380.28 414.708 1381.04 415.468C1381.79 416.21 1381.81 417.423 1381.04 418.165L1370.44 428.878C1370 429.313 1369.42 429.494 1368.85 429.439V429.421ZM1390.09 407.976C1389.67 407.922 1389.27 407.759 1388.96 407.433C1388.22 406.691 1388.2 405.479 1388.96 404.737L1399.57 394.023C1400.31 393.281 1401.51 393.263 1402.28 394.023C1403.02 394.765 1403.04 395.978 1402.28 396.72L1391.67 407.433C1391.23 407.867 1390.65 408.048 1390.09 407.994V407.976ZM1411.32 386.531C1410.9 386.477 1410.5 386.314 1410.19 385.988C1409.45 385.246 1409.43 384.034 1410.19 383.292L1420.8 372.578C1421.55 371.836 1422.74 371.818 1423.51 372.578C1424.25 373.32 1424.27 374.533 1423.51 375.275L1412.9 385.988C1412.46 386.422 1411.88 386.603 1411.32 386.549V386.531Z" fill="url(#paint2_linear_6040_1097)"/>
<path d="M1246.69 552.789C1246.27 552.735 1245.87 552.572 1245.56 552.246C1244.82 551.504 1244.8 550.292 1245.56 549.55L1250.94 544.121C1251.68 543.379 1252.88 543.36 1253.65 544.121C1254.39 544.863 1254.41 546.075 1253.65 546.817L1248.27 552.246C1247.83 552.68 1247.25 552.861 1246.69 552.807V552.789Z" fill="url(#paint3_linear_6040_1097)"/>
</g>
<g clip-path="url(#clip1_6040_1097)">
<path d="M1643 720.75H1391V756H1643V720.75Z" fill="#BE1622"/>
<path d="M1643 697.718H1391V711.253H1643V697.718Z" fill="#2A327B"/>
<path d="M1643 640.519H1391V687.812H1643V640.519Z" fill="#2A327B"/>
<path d="M1643 626.515H1391V630.349H1643V626.515Z" fill="white"/>
<path d="M1643 617.765H1391V621.599H1643V617.765Z" fill="white"/>
<path d="M1643 609H1391V612.834H1643V609Z" fill="white"/>
</g>
<g clip-path="url(#clip2_6040_1097)">
<path d="M460.676 755.678H455.04C454.265 755.678 453.635 755.048 453.635 754.273C453.635 753.497 454.265 752.867 455.04 752.867H460.676C461.452 752.867 462.081 753.497 462.081 754.273C462.081 755.048 461.452 755.678 460.676 755.678Z" fill="url(#paint4_linear_6040_1097)"/>
<path d="M443.344 755.678H431.634C430.858 755.678 430.229 755.048 430.229 754.273C430.229 753.497 430.858 752.867 431.634 752.867H443.344C444.12 752.867 444.75 753.497 444.75 754.273C444.75 755.048 444.12 755.678 443.344 755.678ZM419.924 755.678H408.213C407.437 755.678 406.808 755.048 406.808 754.273C406.808 753.497 407.437 752.867 408.213 752.867H419.924C420.699 752.867 421.329 753.497 421.329 754.273C421.329 755.048 420.699 755.678 419.924 755.678ZM396.503 755.678H384.792C384.016 755.678 383.387 755.048 383.387 754.273C383.387 753.497 384.016 752.867 384.792 752.867H396.503C397.278 752.867 397.908 753.497 397.908 754.273C397.908 755.048 397.278 755.678 396.503 755.678ZM373.082 755.678H361.371C360.595 755.678 359.966 755.048 359.966 754.273C359.966 753.497 360.595 752.867 361.371 752.867H373.082C373.857 752.867 374.487 753.497 374.487 754.273C374.487 755.048 373.857 755.678 373.082 755.678ZM349.661 755.678H337.95C337.174 755.678 336.545 755.048 336.545 754.273C336.545 753.497 337.174 752.867 337.95 752.867H349.661C350.436 752.867 351.066 753.497 351.066 754.273C351.066 755.048 350.436 755.678 349.661 755.678ZM326.24 755.678H314.529C313.753 755.678 313.124 755.048 313.124 754.273C313.124 753.497 313.753 752.867 314.529 752.867H326.24C327.015 752.867 327.645 753.497 327.645 754.273C327.645 755.048 327.015 755.678 326.24 755.678ZM302.819 755.678H291.108C290.332 755.678 289.703 755.048 289.703 754.273C289.703 753.497 290.332 752.867 291.108 752.867H302.819C303.594 752.867 304.224 753.497 304.224 754.273C304.224 755.048 303.594 755.678 302.819 755.678Z" fill="url(#paint5_linear_6040_1097)"/>
<path d="M279.427 755.678H273.791C273.015 755.678 272.386 755.048 272.386 754.273C272.386 753.497 273.015 752.867 273.791 752.867H279.427C280.203 752.867 280.832 753.497 280.832 754.273C280.832 755.048 280.203 755.678 279.427 755.678Z" fill="url(#paint6_linear_6040_1097)"/>
<path d="M357.58 351.315H100.842V646.361H357.58V351.315Z" fill="url(#paint7_linear_6040_1097)"/>
<path d="M288.605 591.965C288.605 626.057 274.816 656.988 252.551 679.501L269.166 696.115C295.661 669.372 312.041 632.586 312.041 591.965C312.041 510.255 245.803 444.003 164.079 444.003V467.424C232.746 467.424 288.62 523.298 288.62 591.965H288.605Z" fill="url(#paint8_linear_6040_1097)"/>
<path d="M100.842 351.315H0V646.361H100.842V351.315Z" fill="url(#paint9_linear_6040_1097)"/>
<path d="M164.079 467.424C95.2942 467.424 39.5376 523.181 39.5376 591.965C39.5376 660.75 95.2942 716.506 164.079 716.506C232.863 716.506 288.62 660.75 288.62 591.965C288.62 523.181 232.863 467.424 164.079 467.424Z" fill="#2A327B"/>
<path d="M164.079 518.745C204.45 518.745 237.298 551.593 237.298 591.965C237.298 632.337 204.45 665.185 164.079 665.185C123.707 665.185 90.8587 632.337 90.8587 591.965C90.8587 551.593 123.707 518.745 164.079 518.745ZM164.079 495.324C110.708 495.324 67.4377 538.595 67.4377 591.965C67.4377 645.336 110.708 688.606 164.079 688.606C217.449 688.606 260.719 645.336 260.719 591.965C260.719 538.595 217.449 495.324 164.079 495.324Z" fill="white"/>
<path d="M164.079 615.869C177.28 615.869 187.983 605.167 187.983 591.965C187.983 578.763 177.28 568.061 164.079 568.061C150.877 568.061 140.175 578.763 140.175 591.965C140.175 605.167 150.877 615.869 164.079 615.869Z" fill="url(#paint10_linear_6040_1097)"/>
<path d="M152.368 367.797H147.098V404.597H152.368V367.797Z" fill="white"/>
<path d="M168.133 388.847V383.577H131.333V388.847H168.133Z" fill="white"/>
<path d="M252.551 679.501C229.965 702.337 198.639 716.506 164.064 716.506V739.927C205.168 739.927 242.334 723.167 269.151 696.115L252.537 679.501H252.551Z" fill="#BE1622"/>
<path d="M174.384 573.712C179.097 576.376 182.801 580.84 184.323 586.476C187.353 597.645 180.737 609.18 169.568 612.21C163.947 613.732 158.223 612.81 153.539 610.087L141.887 630.42C151.768 636.114 163.83 638.046 175.701 634.811C199.371 628.385 213.336 603.998 206.924 580.328C203.704 568.456 195.946 559.015 186.036 553.379L174.384 573.712Z" fill="#BE1622"/>
<path d="M153.539 610.087C148.928 607.409 145.342 603.002 143.834 597.469C140.804 586.3 147.42 574.766 158.589 571.735C164.122 570.228 169.744 571.106 174.384 573.726L186.036 553.394C176.199 547.802 164.24 545.928 152.456 549.134C128.786 555.56 114.821 579.947 121.233 603.617C124.439 615.401 132.094 624.784 141.887 630.434L153.539 610.102V610.087Z" fill="white"/>
</g>
<g clip-path="url(#clip3_6040_1097)">
<path d="M1536.24 39.158C1542.2 39.158 1547.04 34.3244 1547.04 28.3618C1547.04 22.3993 1542.2 17.5657 1536.24 17.5657C1530.28 17.5657 1525.44 22.3993 1525.44 28.3618C1525.44 34.3244 1530.28 39.158 1536.24 39.158Z" fill="url(#paint11_linear_6040_1097)"/>
<path d="M1363.09 263.559C1302.94 243.725 1270.17 178.661 1290 118.521L1321.14 128.796C1306.97 171.759 1330.38 218.252 1373.36 232.421C1416.32 246.59 1462.82 223.174 1476.99 180.198L1508.12 190.473C1488.29 250.601 1423.23 283.393 1363.1 263.559H1363.09Z" fill="url(#paint12_radial_6040_1097)"/>
<path d="M1373.36 232.395C1330.41 218.226 1306.99 171.759 1321.16 128.809L1352.3 139.084C1343.8 164.87 1357.85 192.765 1383.64 201.269C1409.42 209.774 1437.32 195.722 1445.82 169.936L1476.96 180.211C1462.79 223.161 1416.32 246.577 1373.37 232.408L1373.36 232.395Z" fill="url(#paint13_radial_6040_1097)"/>
<path d="M1383.64 201.23C1357.86 192.726 1343.82 164.857 1352.32 139.084L1383.45 149.359C1380.61 157.955 1385.3 167.266 1393.91 170.105C1402.51 172.944 1411.82 168.256 1414.66 159.648L1445.8 169.923C1437.29 195.696 1409.42 209.735 1383.65 201.243L1383.64 201.23Z" fill="url(#paint14_linear_6040_1097)"/>
<path d="M1508.11 190.473L1476.97 180.198C1488.32 145.817 1469.58 108.636 1435.19 97.2931C1400.81 85.9499 1363.63 104.69 1352.29 139.071L1321.15 128.796C1338.16 77.2505 1393.92 49.1597 1445.46 66.1548C1497 83.163 1525.11 138.915 1508.1 190.46L1508.11 190.473Z" fill="url(#paint15_radial_6040_1097)"/>
<path d="M1476.95 180.198L1445.81 169.923C1451.47 152.732 1442.11 134.135 1424.91 128.457C1407.72 122.792 1389.12 132.156 1383.44 149.346L1352.3 139.071C1363.63 104.716 1400.81 85.976 1435.17 97.3192C1469.52 108.649 1488.26 145.83 1476.93 180.185L1476.95 180.198Z" fill="url(#paint16_radial_6040_1097)"/>
<path d="M1445.78 169.91L1383.48 149.359C1389.14 132.182 1407.73 122.818 1424.91 128.483C1442.08 134.148 1451.45 152.732 1445.78 169.91Z" fill="url(#paint17_linear_6040_1097)"/>
<path d="M1414.42 225.063C1450.78 225.063 1480.25 195.589 1480.25 159.231C1480.25 122.873 1450.78 93.3992 1414.42 93.3992C1378.06 93.3992 1348.59 122.873 1348.59 159.231C1348.59 195.589 1378.06 225.063 1414.42 225.063Z" fill="url(#paint18_linear_6040_1097)"/>
<path d="M1414.42 204.76C1439.57 204.76 1459.95 184.376 1459.95 159.231C1459.95 134.086 1439.57 113.702 1414.42 113.702C1389.28 113.702 1368.89 134.086 1368.89 159.231C1368.89 184.376 1389.28 204.76 1414.42 204.76Z" fill="#2A327B"/>
<mask id="mask0_6040_1097" style="mask-type:luminance" maskUnits="userSpaceOnUse" x="1368" y="113" width="92" height="92">
<path d="M1414.42 204.76C1439.57 204.76 1459.95 184.376 1459.95 159.231C1459.95 134.086 1439.57 113.702 1414.42 113.702C1389.28 113.702 1368.89 134.086 1368.89 159.231C1368.89 184.376 1389.28 204.76 1414.42 204.76Z" fill="white"/>
</mask>
<g mask="url(#mask0_6040_1097)">
<path d="M1464.24 126.847L1405 153.496L1413.6 172.617L1472.84 145.968L1464.24 126.847Z" fill="#FE7A2B"/>
</g>
<path d="M1414.42 183.727C1427.95 183.727 1438.92 172.76 1438.92 159.231C1438.92 145.702 1427.95 134.734 1414.42 134.734C1400.89 134.734 1389.93 145.702 1389.93 159.231C1389.93 172.76 1400.89 183.727 1414.42 183.727Z" fill="white"/>
<path d="M1512.58 96.0819C1512.34 96.0819 1512.11 95.9516 1511.99 95.7303C1485.27 42.8174 1412.1 25.7702 1348.89 57.7028C1348.56 57.8591 1348.17 57.7419 1348.02 57.4163C1347.86 57.0907 1347.98 56.7 1348.3 56.5438C1412.17 24.2855 1486.11 41.5932 1513.16 95.1312C1513.32 95.4568 1513.2 95.8475 1512.88 96.0037C1512.79 96.0558 1512.68 96.0689 1512.58 96.0689V96.0819Z" fill="url(#paint19_linear_6040_1097)"/>
<path d="M1276.65 83.2541C1276.49 83.2541 1276.33 83.202 1276.21 83.0718C1275.95 82.8244 1275.93 82.4076 1276.18 82.1472C1308.34 48.0787 1349.7 26.5385 1392.65 21.4856C1435.62 16.4326 1475.05 28.5181 1503.64 55.5019C1503.9 55.7493 1503.92 56.1661 1503.67 56.4265C1503.42 56.687 1503.02 56.7 1502.75 56.4526C1474.43 29.7292 1435.39 17.774 1392.79 22.7749C1350.15 27.7888 1309.08 49.1987 1277.12 83.0588C1276.99 83.189 1276.82 83.2672 1276.65 83.2672V83.2541Z" fill="url(#paint20_linear_6040_1097)"/>
</g>
<g clip-path="url(#clip4_6040_1097)">
<path d="M145.46 285.885C154.575 285.885 162.003 293.309 162.003 302.452C162.003 311.595 154.589 319.02 145.46 319.02C136.33 319.02 128.917 311.595 128.917 302.452C128.917 293.309 136.33 285.885 145.46 285.885ZM145.46 278.475C132.246 278.475 121.518 289.204 121.518 302.452C121.518 315.7 132.231 326.429 145.46 326.429C158.688 326.429 169.401 315.7 169.401 302.452C169.401 289.204 158.688 278.475 145.46 278.475Z" fill="#2A327B"/>
<path d="M256.793 290.76C263.568 290.76 269.06 285.26 269.06 278.475C269.06 271.691 263.568 266.19 256.793 266.19C250.018 266.19 244.526 271.691 244.526 278.475C244.526 285.26 250.018 290.76 256.793 290.76Z" fill="url(#paint21_linear_6040_1097)"/>
<path d="M418.836 58.1935C432.182 58.1935 443 47.3592 443 33.9944C443 20.6296 432.182 9.79529 418.836 9.79529C405.491 9.79529 394.673 20.6296 394.673 33.9944C394.673 47.3592 405.491 58.1935 418.836 58.1935Z" fill="url(#paint22_linear_6040_1097)"/>
<path d="M219.697 379.554C226.472 379.554 231.964 374.054 231.964 367.27C231.964 360.485 226.472 354.985 219.697 354.985C212.922 354.985 207.43 360.485 207.43 367.27C207.43 374.054 212.922 379.554 219.697 379.554Z" fill="#2A327B"/>
<path d="M219.697 355C226.474 355 231.964 360.497 231.964 367.284C231.964 374.071 226.474 379.569 219.697 379.569C212.92 379.569 207.43 374.071 207.43 367.284C207.43 360.497 212.92 355 219.697 355ZM219.697 350.554C210.493 350.554 202.991 358.052 202.991 367.284C202.991 376.517 210.478 384.015 219.697 384.015C228.915 384.015 236.403 376.517 236.403 367.284C236.403 358.052 228.915 350.554 219.697 350.554Z" fill="white"/>
<path d="M308.983 105.984C308.983 151.345 272.123 188.258 226.829 188.258C225.778 188.258 224.728 188.214 223.692 188.184V211.894C224.743 211.924 225.778 211.968 226.829 211.968C285.278 211.968 332.658 164.518 332.658 105.984H308.983Z" fill="white"/>
<path d="M121 105.984C121 163.466 166.693 210.22 223.692 211.894V188.184C179.848 186.524 144.675 150.307 144.675 105.984H121Z" fill="url(#paint23_radial_6040_1097)"/>
<path d="M144.675 105.984C144.675 60.6238 181.535 23.7101 226.829 23.7101C272.123 23.7101 308.983 60.6238 308.983 105.984H332.658C332.658 47.4498 285.278 0 226.829 0C168.38 0 121 47.4498 121 105.984H144.675Z" fill="url(#paint24_radial_6040_1097)"/>
</g>
<defs>
<linearGradient id="paint0_linear_6040_1097" x1="1298.87" y1="313.002" x2="1328.99" y2="313.002" gradientUnits="userSpaceOnUse">
<stop stop-color="#EFB97F"/>
<stop offset="1" stop-color="#BE1622"/>
</linearGradient>
<linearGradient id="paint1_linear_6040_1097" x1="1268.78" y1="341.702" x2="1439.64" y2="361.119" gradientUnits="userSpaceOnUse">
<stop stop-color="#EFB97F"/>
<stop offset="1" stop-color="#BE1622"/>
</linearGradient>
<linearGradient id="paint2_linear_6040_1097" x1="1262" y1="445.26" x2="1427.51" y2="464.068" gradientUnits="userSpaceOnUse">
<stop stop-color="#EFB97F"/>
<stop offset="1" stop-color="#BE1622"/>
</linearGradient>
<linearGradient id="paint3_linear_6040_1097" x1="1245.37" y1="547.706" x2="1416.25" y2="567.125" gradientUnits="userSpaceOnUse">
<stop stop-color="#EFB97F"/>
<stop offset="1" stop-color="#BE1622"/>
</linearGradient>
<linearGradient id="paint4_linear_6040_1097" x1="272.4" y1="754.258" x2="462.081" y2="754.258" gradientUnits="userSpaceOnUse">
<stop stop-color="#EFB97F"/>
<stop offset="1" stop-color="#BE1622"/>
</linearGradient>
<linearGradient id="paint5_linear_6040_1097" x1="278.666" y1="351.318" x2="461.452" y2="351.318" gradientUnits="userSpaceOnUse">
<stop stop-color="#EFB97F"/>
<stop offset="1" stop-color="#BE1622"/>
</linearGradient>
<linearGradient id="paint6_linear_6040_1097" x1="272.401" y1="351.318" x2="462.081" y2="351.318" gradientUnits="userSpaceOnUse">
<stop stop-color="#EFB97F"/>
<stop offset="1" stop-color="#BE1622"/>
</linearGradient>
<linearGradient id="paint7_linear_6040_1097" x1="229.218" y1="646.361" x2="229.218" y2="351.315" gradientUnits="userSpaceOnUse">
<stop stop-color="#EEF4F6"/>
<stop offset="1" stop-color="#2A327B"/>
</linearGradient>
<linearGradient id="paint8_linear_6040_1097" x1="238.06" y1="679.252" x2="238.06" y2="510.094" gradientUnits="userSpaceOnUse">
<stop stop-color="#2A327B"/>
<stop offset="0.45" stop-color="#2A327B" stop-opacity="0"/>
</linearGradient>
<linearGradient id="paint9_linear_6040_1097" x1="121.553" y1="646.361" x2="121.553" y2="351.315" gradientUnits="userSpaceOnUse">
<stop stop-color="#BDCBD2" stop-opacity="0"/>
<stop offset="1" stop-color="white"/>
</linearGradient>
<linearGradient id="paint10_linear_6040_1097" x1="183.503" y1="569.935" x2="147.538" y2="610.702" gradientUnits="userSpaceOnUse">
<stop stop-color="#FBEED1"/>
<stop offset="1" stop-color="#1D71B8"/>
</linearGradient>
<linearGradient id="paint11_linear_6040_1097" x1="1545.02" y1="18.4122" x2="1528.78" y2="36.8268" gradientUnits="userSpaceOnUse">
<stop stop-color="#EFB97F"/>
<stop offset="1" stop-color="#BE1622"/>
</linearGradient>
<radialGradient id="paint12_radial_6040_1097" cx="0" cy="0" r="1" gradientUnits="userSpaceOnUse" gradientTransform="translate(1303.45 124.707) scale(172.699 172.699)">
<stop stop-color="#ECF0F7"/>
<stop offset="1" stop-color="#2A327B"/>
</radialGradient>
<radialGradient id="paint13_radial_6040_1097" cx="0" cy="0" r="1" gradientUnits="userSpaceOnUse" gradientTransform="translate(1463.39 175.666) scale(112.663)">
<stop stop-color="#FE9047"/>
<stop offset="1" stop-color="#BE1622"/>
</radialGradient>
<linearGradient id="paint14_linear_6040_1097" x1="1344.71" y1="162.436" x2="1438.17" y2="193.273" gradientUnits="userSpaceOnUse">
<stop stop-color="white"/>
<stop offset="1"/>
</linearGradient>
<radialGradient id="paint15_radial_6040_1097" cx="0" cy="0" r="1" gradientUnits="userSpaceOnUse" gradientTransform="translate(1340.26 133.797) scale(136.547 136.547)">
<stop offset="0.11" stop-color="#BE1622"/>
<stop offset="1" stop-color="#2A327B"/>
</radialGradient>
<radialGradient id="paint16_radial_6040_1097" cx="0" cy="0" r="1" gradientUnits="userSpaceOnUse" gradientTransform="translate(1367.97 143.76) scale(79.5711 79.5711)">
<stop stop-color="#FF5C05"/>
<stop offset="1" stop-color="#FF6B17"/>
</radialGradient>
<linearGradient id="paint17_linear_6040_1097" x1="1388.72" y1="133.787" x2="1866.86" y2="291.544" gradientUnits="userSpaceOnUse">
<stop stop-color="white"/>
<stop offset="1"/>
</linearGradient>
<linearGradient id="paint18_linear_6040_1097" x1="1454.57" y1="106.357" x2="1374.31" y2="212.027" gradientUnits="userSpaceOnUse">
<stop stop-color="#EFB97F"/>
<stop offset="1" stop-color="#BE1622"/>
</linearGradient>
<linearGradient id="paint19_linear_6040_1097" x1="1406.14" y1="27.5106" x2="1455.49" y2="125.189" gradientUnits="userSpaceOnUse">
<stop stop-color="#EFB97F"/>
<stop offset="1" stop-color="#BE1622"/>
</linearGradient>
<linearGradient id="paint20_linear_6040_1097" x1="1336.46" y1="18.6088" x2="1443.91" y2="120.048" gradientUnits="userSpaceOnUse">
<stop stop-color="#EFB97F"/>
<stop offset="1" stop-color="#BE1622"/>
</linearGradient>
<linearGradient id="paint21_linear_6040_1097" x1="266.766" y1="267.154" x2="248.284" y2="288.081" gradientUnits="userSpaceOnUse">
<stop stop-color="#EFB97F"/>
<stop offset="1" stop-color="#BE1622"/>
</linearGradient>
<linearGradient id="paint22_linear_6040_1097" x1="438.487" y1="11.6921" x2="402.056" y2="52.9095" gradientUnits="userSpaceOnUse">
<stop stop-color="white"/>
<stop offset="1" stop-color="#2A327B"/>
</linearGradient>
<radialGradient id="paint23_radial_6040_1097" cx="0" cy="0" r="1" gradientUnits="userSpaceOnUse" gradientTransform="translate(158.008 172.076) scale(64.1307 64.2248)">
<stop stop-color="#2A327B"/>
<stop offset="1" stop-color="#BECCD2" stop-opacity="0"/>
</radialGradient>
<radialGradient id="paint24_radial_6040_1097" cx="0" cy="0" r="1" gradientUnits="userSpaceOnUse" gradientTransform="translate(226.829 52.9921) scale(95.3822 95.5221)">
<stop stop-color="white"/>
<stop offset="1" stop-color="#2A327B"/>
</radialGradient>
<clipPath id="clip0_6040_1097">
<rect width="195" height="268" fill="white" transform="translate(1245 298)"/>
</clipPath>
<clipPath id="clip1_6040_1097">
<rect width="252" height="147" fill="white" transform="translate(1391 609)"/>
</clipPath>
<clipPath id="clip2_6040_1097">
<rect width="462.081" height="404.363" fill="white" transform="translate(0 351.315)"/>
</clipPath>
<clipPath id="clip3_6040_1097">
<rect width="271.037" height="251.776" fill="white" transform="translate(1276 17.5657)"/>
</clipPath>
<clipPath id="clip4_6040_1097">
<rect width="322" height="384" fill="white" transform="translate(121)"/>
</clipPath>
</defs>
</svg>
