<svg width="329" height="397" viewBox="0 0 329 397" fill="none" xmlns="http://www.w3.org/2000/svg">
<g clip-path="url(#clip0_4003_11919)">
<path d="M133.615 361.965C133.139 362.331 132.572 362.568 131.931 362.55C130.43 362.55 129.186 361.342 129.204 359.823L129.058 338.301C129.058 336.801 130.247 335.575 131.785 335.575C133.285 335.575 134.53 336.782 134.511 338.301L134.658 359.823C134.658 360.702 134.255 361.47 133.633 361.983L133.615 361.965ZM133.322 318.884C132.846 319.25 132.279 319.488 131.638 319.47C130.138 319.47 128.893 318.262 128.911 316.743L128.765 295.221C128.765 293.72 129.955 292.494 131.492 292.494C132.993 292.494 134.237 293.702 134.219 295.221L134.365 316.743C134.365 317.621 133.962 318.39 133.34 318.902L133.322 318.884ZM133.029 275.804C132.553 276.17 131.986 276.408 131.345 276.389C129.845 276.389 128.6 275.182 128.619 273.663L128.472 252.141C128.472 250.64 129.662 249.414 131.199 249.414C132.7 249.414 133.944 250.622 133.926 252.141L134.072 273.663C134.072 274.541 133.67 275.31 133.047 275.822L133.029 275.804ZM132.736 232.723C132.26 233.089 131.693 233.327 131.053 233.309C129.552 233.309 128.307 232.101 128.326 230.582L128.179 209.06C128.179 207.56 129.369 206.333 130.906 206.333C132.407 206.333 133.651 207.541 133.633 209.06L133.779 230.582C133.779 231.461 133.377 232.229 132.755 232.742L132.736 232.723ZM132.443 189.643C131.968 190.009 131.4 190.247 130.76 190.229C129.259 190.229 128.015 189.021 128.033 187.502L127.887 165.98C127.887 164.479 129.076 163.253 130.613 163.253C132.114 163.253 133.359 164.461 133.34 165.98L133.487 187.502C133.487 188.38 133.084 189.149 132.462 189.661L132.443 189.643ZM132.151 146.563C131.675 146.929 131.108 147.167 130.467 147.148C128.966 147.148 127.722 145.94 127.74 144.421L127.594 122.899C127.594 121.399 128.783 120.173 130.321 120.173C131.821 120.173 133.066 121.381 133.047 122.9L133.194 144.421C133.194 145.3 132.791 146.068 132.169 146.581L132.151 146.563ZM131.858 103.482C131.382 103.848 130.815 104.086 130.174 104.068C128.674 104.068 127.429 102.86 127.447 101.341L127.301 79.8191C127.301 78.3185 128.49 77.0923 130.028 77.0923C131.528 77.0923 132.773 78.3002 132.755 79.8191L132.901 101.341C132.901 102.219 132.498 102.988 131.876 103.501L131.858 103.482ZM131.565 60.4018C131.089 60.7679 130.522 61.0058 129.881 60.9875C128.381 60.9875 127.136 59.7796 127.155 58.2606L127.008 36.7387C127.008 35.2381 128.198 34.0119 129.735 34.0119C131.236 34.0119 132.48 35.2198 132.462 36.7387L132.608 58.2606C132.608 59.1391 132.206 59.9077 131.583 60.4201L131.565 60.4018Z" fill="url(#paint0_linear_4003_11919)"/>
</g>
<defs>
<linearGradient id="paint0_linear_4003_11919" x1="200" y1="286.5" x2="226.157" y2="122.363" gradientUnits="userSpaceOnUse">
<stop stop-color="#EFB97F"/>
<stop offset="1" stop-color="#BE1622"/>
</linearGradient>
<clipPath id="clip0_4003_11919">
<rect width="277.863" height="281.616" fill="white" transform="translate(-67 197) rotate(-45)"/>
</clipPath>
</defs>
</svg>
