<svg width="293" height="341" viewBox="0 0 293 341" fill="none" xmlns="http://www.w3.org/2000/svg">
<g clip-path="url(#clip0_4003_11981)">
<path d="M30.4972 312.998C29.777 312.904 29.0882 312.622 28.5559 312.058C27.2721 310.773 27.2408 308.674 28.5559 307.389L46.8417 288.837C48.1254 287.552 50.192 287.521 51.507 288.837C52.7908 290.122 52.8221 292.222 51.507 293.506L33.2213 312.058C32.4698 312.81 31.4678 313.124 30.4972 313.03V312.998ZM67.1 275.864C66.3799 275.769 65.691 275.487 65.1587 274.923C63.875 273.639 63.8437 271.539 65.1587 270.254L83.4445 251.702C84.7283 250.418 86.7948 250.386 88.1099 251.702C89.3936 252.987 89.4249 255.087 88.1099 256.372L69.8241 274.923C69.0726 275.675 68.0707 275.989 67.1 275.895V275.864ZM103.703 238.729C102.983 238.635 102.294 238.353 101.762 237.789C100.478 236.504 100.447 234.404 101.762 233.119L120.047 214.567C121.331 213.283 123.398 213.251 124.713 214.567C125.996 215.852 126.028 217.952 124.713 219.237L106.427 237.789C105.675 238.541 104.674 238.854 103.703 238.76V238.729ZM140.306 201.594C139.586 201.5 138.897 201.218 138.364 200.654C137.081 199.369 137.049 197.269 138.364 195.984L156.65 177.433C157.934 176.148 160 176.116 161.316 177.433C162.599 178.717 162.631 180.817 161.316 182.102L143.03 200.654C142.278 201.406 141.276 201.719 140.306 201.625V201.594ZM176.909 164.459C176.188 164.365 175.5 164.083 174.967 163.519C173.683 162.234 173.652 160.134 174.967 158.85L193.253 140.298C194.537 139.013 196.603 138.982 197.918 140.298C199.202 141.583 199.233 143.682 197.918 144.967L179.633 163.519C178.881 164.271 177.879 164.584 176.909 164.49V164.459ZM213.511 127.324C212.791 127.23 212.102 126.948 211.57 126.384C210.286 125.099 210.255 122.999 211.57 121.715L229.856 103.163C231.14 101.878 233.206 101.847 234.521 103.163C235.805 104.448 235.836 106.547 234.521 107.832L216.235 126.384C215.484 127.136 214.482 127.449 213.511 127.355V127.324ZM250.114 90.1892C249.394 90.0952 248.705 89.8131 248.173 89.249C246.889 87.9642 246.858 85.8646 248.173 84.5798L266.459 66.028C267.742 64.7432 269.809 64.7118 271.124 66.028C272.408 67.3128 272.439 69.4124 271.124 70.6973L252.838 89.249C252.087 90.0011 251.085 90.3145 250.114 90.2205V90.1892ZM286.717 53.0543C285.997 52.9603 285.308 52.6783 284.776 52.1142C283.492 50.8293 283.461 48.7297 284.776 47.4449L303.062 28.8931C304.345 27.6083 306.412 27.577 307.727 28.8931C309.011 30.178 309.042 32.2776 307.727 33.5624L289.441 52.1142C288.69 52.8663 287.688 53.1797 286.717 53.0856V53.0543Z" fill="url(#paint0_linear_4003_11981)"/>
<path d="M2.91199 340.951C2.19183 340.857 1.50298 340.575 0.970691 340.011C-0.313069 338.726 -0.344381 336.627 0.970691 335.342L10.2388 325.941C11.5226 324.656 13.5891 324.625 14.9042 325.941C16.188 327.226 16.2193 329.325 14.9042 330.61L5.63607 340.011C4.8846 340.763 3.88264 341.077 2.91199 340.983V340.951Z" fill="url(#paint1_linear_4003_11981)"/>
</g>
<defs>
<linearGradient id="paint0_linear_4003_11981" x1="29.2911" y1="154.736" x2="314.629" y2="187.018" gradientUnits="userSpaceOnUse">
<stop stop-color="#EFB97F"/>
<stop offset="1" stop-color="#BE1622"/>
</linearGradient>
<linearGradient id="paint1_linear_4003_11981" x1="0.618728" y1="332.135" x2="295.197" y2="365.462" gradientUnits="userSpaceOnUse">
<stop stop-color="#EFB97F"/>
<stop offset="1" stop-color="#BE1622"/>
</linearGradient>
<clipPath id="clip0_4003_11981">
<rect width="336.157" height="340.983" fill="white"/>
</clipPath>
</defs>
</svg>
