<svg width="541" height="181" viewBox="0 0 541 181" fill="none" xmlns="http://www.w3.org/2000/svg">
<g clip-path="url(#clip0_6075_3)">
<path d="M1.99182 0.282552C2.52542 0.282552 3.059 0.592151 3.3258 1.11847C64.1558 126.908 230.697 167.434 374.591 91.5209C375.332 91.1494 376.221 91.4281 376.577 92.2021C376.933 92.976 376.666 93.9048 375.925 94.2764C230.549 170.964 62.229 129.818 0.657837 2.54261C0.302106 1.76862 0.568908 0.83982 1.31001 0.468303C1.51752 0.344464 1.75467 0.313507 1.99182 0.313507V0.282552Z" fill="url(#paint0_linear_6075_3)"/>
<path d="M539.027 30.7471C539.383 30.7471 539.768 30.8709 540.035 31.1805C540.628 31.7688 540.657 32.7595 540.094 33.3787C466.903 114.4 372.752 165.608 274.986 177.62C177.159 189.633 87.4263 160.902 22.3275 96.7533C21.7346 96.165 21.7049 95.1743 22.2682 94.5551C22.8314 93.9359 23.7504 93.905 24.3729 94.4932C88.8196 158.023 177.693 186.444 274.659 174.524C371.715 162.636 465.213 111.738 537.96 31.2424C538.256 30.9328 538.642 30.7471 539.027 30.7471Z" fill="url(#paint1_linear_6075_3)"/>
</g>
<defs>
<linearGradient id="paint0_linear_6075_3" x1="244.327" y1="163.17" x2="124.028" y2="-64.8622" gradientUnits="userSpaceOnUse">
<stop stop-color="#EFB97F"/>
<stop offset="1" stop-color="#BE1622"/>
</linearGradient>
<linearGradient id="paint1_linear_6075_3" x1="402.929" y1="184.301" x2="148.349" y2="-45.8111" gradientUnits="userSpaceOnUse">
<stop stop-color="#EFB97F"/>
<stop offset="1" stop-color="#BE1622"/>
</linearGradient>
<clipPath id="clip0_6075_3">
<rect width="540" height="180" fill="white" transform="matrix(-1 0 0 -1 540.51 180.282)"/>
</clipPath>
</defs>
</svg>
